mtllib material.mtl
o Default
v 0.4375 0 -0.0625
v 0.4375 -0.0625 -0.0625
v 0.5 -0.0625 -0.0625
v 0.5 0 -0.0625
v -0.3125 -0.0625 1.1875
v -0.3125 0.375 -0.0625
v -0.3125 -0.0625 -0.0625
v -0.3125 0.375 1.1875
v 0.5 0 -0.0625
v 0.5625 -0.0625 -0.0625
v 0.5 -0.0625 -0.0625
v 0.5625 0 -0.0625
v 0.5625 0 -0.0625
v 0.625 -0.0625 -0.0625
v 0.5625 -0.0625 -0.0625
v 0.625 0 -0.0625
v 0.625 0 -0.0625
v 0.6875 -0.0625 -0.0625
v 0.625 -0.0625 -0.0625
v 0.6875 0 -0.0625
v 0.6875 0 -0.0625
v 0.75 -0.0625 -0.0625
v 0.6875 -0.0625 -0.0625
v 0.75 0 -0.0625
v 0.75 0 -0.0625
v 0.8125 -0.0625 -0.0625
v 0.75 -0.0625 -0.0625
v 0.8125 0 -0.0625
v -0.3125 0.3125 1.125
v 0.8125 0.3125 1.1875
v -0.3125 0.3125 1.1875
v 0.8125 0.3125 1.125
v 0.25 0 1.1875
v 0.53125 0 1.125
v 0.25 0 1.125
v 0.53125 0 1.1875
v -0.3125 0 0
v 0.8125 0 -0.0625
v -0.3125 0 -0.0625
v 0.8125 0 0
v -0.3125 0.3125 -0.0625
v 0.8125 0.3125 0
v -0.3125 0.3125 0
v 0.8125 0.3125 -0.0625
v 0.8125 0.3125 -0.0625
v 0.8125 0.375 1.1875
v 0.8125 0.3125 1.1875
v 0.8125 0.375 -0.0625
v 0.8125 -0.0625 -0.0625
v 0.8125 0 1.1875
v 0.8125 -0.0625 1.1875
v 0.8125 0 -0.0625
v 0.75 0 1.125
v 0.8125 0 0
v 0.75 0 0
v 0.8125 0 1.125
v 0.75 0.3125 0
v 0.8125 0.3125 1.125
v 0.75 0.3125 1.125
v 0.8125 0.3125 0
v 0.53125 0 1.1875
v 0.8125 0 1.125
v 0.53125 0 1.125
v 0.8125 0 1.1875
v -0.3125 0.3125 1.1875
v -0.25 0 1.1875
v -0.25 0.3125 1.1875
v -0.3125 0 1.1875
v -0.25 0 1.1875
v -0.25 0.3125 1.125
v -0.25 0.3125 1.1875
v -0.25 0 1.125
v -0.25 0 0
v -0.25 0.3125 -0.0625
v -0.25 0.3125 0
v -0.25 0 -0.0625
v -0.25 0 -0.0625
v -0.3125 0.3125 -0.0625
v -0.25 0.3125 -0.0625
v -0.3125 0 -0.0625
v 0.75 -0.0625 1.125
v 0.75 0.3125 0
v 0.75 0.3125 1.125
v 0.75 -0.0625 0
v 0 0 0
v -0.25 0.3125 0
v 0 0.3125 0
v -0.25 0 0
v -0.3125 0.375 1.1875
v -0.25 0.375 -0.0625
v -0.3125 0.375 -0.0625
v -0.25 0.375 1.1875
v -0.25 0.375 1.1875
v -0.1875 0.3125 -0.0625
v -0.25 0.375 -0.0625
v -0.1875 0.3125 1.1875
v -0.1875 0.3125 1.1875
v -0.125 0.375 -0.0625
v -0.1875 0.3125 -0.0625
v -0.125 0.375 1.1875
v -0.125 0.375 1.1875
v -0.0625 0.375 -0.0625
v -0.125 0.375 -0.0625
v -0.0625 0.375 1.1875
v -0.0625 0.375 1.1875
v 0 0.375 -0.0625
v -0.0625 0.375 -0.0625
v 0 0.375 1.1875
v 0 0.375 1.1875
v 0.0625 0.375 -0.0625
v 0 0.375 -0.0625
v 0.0625 0.375 1.1875
v 0.0625 0.375 1.1875
v 0.125 0.375 -0.0625
v 0.0625 0.375 -0.0625
v 0.125 0.375 1.1875
v 0.125 0.375 1.1875
v 0.1875 0.375 -0.0625
v 0.125 0.375 -0.0625
v 0.1875 0.375 1.1875
v 0.1875 0.375 1.1875
v 0.25 0.375 -0.0625
v 0.1875 0.375 -0.0625
v 0.25 0.375 1.1875
v 0.25 0.375 1.1875
v 0.3125 0.375 -0.0625
v 0.25 0.375 -0.0625
v 0.3125 0.375 1.1875
v 0.3125 0.375 1.1875
v 0.375 0.375 -0.0625
v 0.3125 0.375 -0.0625
v 0.375 0.375 1.1875
v 0.375 0.375 1.1875
v 0.4375 0.375 -0.0625
v 0.375 0.375 -0.0625
v 0.4375 0.375 1.1875
v 0.4375 0.375 1.1875
v 0.5 0.375 -0.0625
v 0.4375 0.375 -0.0625
v 0.5 0.375 1.1875
v 0.5 0.375 1.1875
v 0.5625 0.375 -0.0625
v 0.5 0.375 -0.0625
v 0.5625 0.375 1.1875
v 0.5625 0.375 1.1875
v 0.625 0.375 -0.0625
v 0.5625 0.375 -0.0625
v 0.625 0.375 1.1875
v 0.625 0.375 1.1875
v 0.6875 0.375 -0.0625
v 0.625 0.375 -0.0625
v 0.6875 0.375 1.1875
v 0.6875 0.375 1.1875
v 0.75 0.375 -0.0625
v 0.6875 0.375 -0.0625
v 0.75 0.375 1.1875
v 0.75 0.375 1.1875
v 0.8125 0.375 -0.0625
v 0.75 0.375 -0.0625
v 0.8125 0.375 1.1875
v -0.3125 0.3125 1.1875
v -0.25 0.375 1.1875
v -0.3125 0.375 1.1875
v -0.25 0.3125 1.1875
v -0.25 0.3125 1.1875
v -0.1875 0.3125 1.1875
v -0.25 0.375 1.1875
v -0.1875 0.25 1.1875
v -0.1875 0.25 1.1875
v -0.125 0.375 1.1875
v -0.1875 0.3125 1.1875
v -0.125 0.3125 1.1875
v -0.125 0.3125 1.1875
v -0.0625 0.375 1.1875
v -0.125 0.375 1.1875
v -0.0625 0.3125 1.1875
v -0.0625 0.3125 1.1875
v 0 0.375 1.1875
v -0.0625 0.375 1.1875
v 0 0.3125 1.1875
v 0 0.3125 1.1875
v 0.0625 0.375 1.1875
v 0 0.375 1.1875
v 0.0625 0.3125 1.1875
v 0.0625 0.3125 1.1875
v 0.125 0.375 1.1875
v 0.0625 0.375 1.1875
v 0.125 0.3125 1.1875
v 0.125 0.3125 1.1875
v 0.1875 0.375 1.1875
v 0.125 0.375 1.1875
v 0.1875 0.3125 1.1875
v 0.1875 0.3125 1.1875
v 0.25 0.375 1.1875
v 0.1875 0.375 1.1875
v 0.25 0.3125 1.1875
v 0.25 0.3125 1.1875
v 0.3125 0.375 1.1875
v 0.25 0.375 1.1875
v 0.3125 0.3125 1.1875
v 0.3125 0.3125 1.1875
v 0.375 0.375 1.1875
v 0.3125 0.375 1.1875
v 0.375 0.3125 1.1875
v 0.375 0.3125 1.1875
v 0.4375 0.375 1.1875
v 0.375 0.375 1.1875
v 0.4375 0.3125 1.1875
v 0.4375 0.3125 1.1875
v 0.5 0.375 1.1875
v 0.4375 0.375 1.1875
v 0.5 0.3125 1.1875
v 0.5 0.3125 1.1875
v 0.5625 0.375 1.1875
v 0.5 0.375 1.1875
v 0.5625 0.3125 1.1875
v 0.5625 0.3125 1.1875
v 0.625 0.375 1.1875
v 0.5625 0.375 1.1875
v 0.625 0.3125 1.1875
v 0.625 0.3125 1.1875
v 0.6875 0.375 1.1875
v 0.625 0.375 1.1875
v 0.6875 0.3125 1.1875
v 0.6875 0.3125 1.1875
v 0.75 0.375 1.1875
v 0.6875 0.375 1.1875
v 0.75 0.3125 1.1875
v 0.75 0.3125 1.1875
v 0.8125 0.375 1.1875
v 0.75 0.375 1.1875
v 0.8125 0.3125 1.1875
v -0.3125 -0.0625 1.1875
v -0.25 0 1.1875
v -0.3125 0 1.1875
v -0.25 -0.0625 1.1875
v -0.25 -0.0625 1.1875
v -0.1875 0.0625 1.1875
v -0.25 0 1.1875
v -0.1875 0 1.1875
v -0.1875 0 1.1875
v -0.125 0 1.1875
v -0.1875 0.0625 1.1875
v -0.125 -0.0625 1.1875
v -0.125 -0.0625 1.1875
v -0.0625 0 1.1875
v -0.125 0 1.1875
v -0.0625 -0.0625 1.1875
v -0.0625 -0.0625 1.1875
v 0 0 1.1875
v -0.0625 0 1.1875
v 0 -0.0625 1.1875
v 0 -0.0625 1.1875
v 0.0625 0 1.1875
v 0 0 1.1875
v 0.0625 -0.0625 1.1875
v 0.0625 -0.0625 1.1875
v 0.125 0 1.1875
v 0.0625 0 1.1875
v 0.125 -0.0625 1.1875
v 0.125 -0.0625 1.1875
v 0.1875 0 1.1875
v 0.125 0 1.1875
v 0.1875 -0.0625 1.1875
v 0.1875 -0.0625 1.1875
v 0.25 0 1.1875
v 0.1875 0 1.1875
v 0.25 -0.0625 1.1875
v 0.25 -0.0625 1.1875
v 0.3125 0 1.1875
v 0.25 0 1.1875
v 0.3125 -0.0625 1.1875
v 0.3125 -0.0625 1.1875
v 0.375 0 1.1875
v 0.3125 0 1.1875
v 0.375 -0.0625 1.1875
v 0.375 -0.0625 1.1875
v 0.4375 0 1.1875
v 0.375 0 1.1875
v 0.4375 -0.0625 1.1875
v 0.4375 -0.0625 1.1875
v 0.5 0 1.1875
v 0.4375 0 1.1875
v 0.5 -0.0625 1.1875
v 0.5 -0.0625 1.1875
v 0.5625 0 1.1875
v 0.5 0 1.1875
v 0.5625 -0.0625 1.1875
v 0.5625 -0.0625 1.1875
v 0.625 0 1.1875
v 0.5625 0 1.1875
v 0.625 -0.0625 1.1875
v 0.625 -0.0625 1.1875
v 0.6875 0 1.1875
v 0.625 0 1.1875
v 0.6875 -0.0625 1.1875
v 0.6875 -0.0625 1.1875
v 0.75 0 1.1875
v 0.6875 0 1.1875
v 0.75 -0.0625 1.1875
v 0.75 -0.0625 1.1875
v 0.8125 0 1.1875
v 0.75 0 1.1875
v 0.8125 -0.0625 1.1875
v 0.8125 -0.0625 1.1875
v 0.75 -0.0625 -0.0625
v 0.8125 -0.0625 -0.0625
v 0.75 -0.0625 1.1875
v 0.75 -0.0625 1.1875
v 0.6875 -0.0625 -0.0625
v 0.75 -0.0625 -0.0625
v 0.6875 -0.0625 1.1875
v 0.6875 -0.0625 1.1875
v 0.625 -0.0625 -0.0625
v 0.6875 -0.0625 -0.0625
v 0.625 -0.0625 1.1875
v 0.625 -0.0625 1.1875
v 0.5625 -0.0625 -0.0625
v 0.625 -0.0625 -0.0625
v 0.5625 -0.0625 1.1875
v 0.5625 -0.0625 1.1875
v 0.5 -0.0625 -0.0625
v 0.5625 -0.0625 -0.0625
v 0.5 -0.0625 1.1875
v 0.5 -0.0625 1.1875
v 0.4375 -0.0625 -0.0625
v 0.5 -0.0625 -0.0625
v 0.4375 -0.0625 1.1875
v 0.4375 -0.0625 1.1875
v 0.375 -0.0625 -0.0625
v 0.4375 -0.0625 -0.0625
v 0.375 -0.0625 1.1875
v 0.375 -0.0625 1.1875
v 0.3125 -0.0625 -0.0625
v 0.375 -0.0625 -0.0625
v 0.3125 -0.0625 1.1875
v 0.3125 -0.0625 1.1875
v 0.25 -0.0625 -0.0625
v 0.3125 -0.0625 -0.0625
v 0.25 -0.0625 1.1875
v 0.25 -0.0625 1.1875
v 0.1875 -0.0625 -0.0625
v 0.25 -0.0625 -0.0625
v 0.1875 -0.0625 1.1875
v 0.1875 -0.0625 1.1875
v 0.125 -0.0625 -0.0625
v 0.1875 -0.0625 -0.0625
v 0.125 -0.0625 1.1875
v 0.125 -0.0625 1.1875
v 0.0625 -0.0625 -0.0625
v 0.125 -0.0625 -0.0625
v 0.0625 -0.0625 1.1875
v 0.0625 -0.0625 1.1875
v 0 -0.0625 -0.0625
v 0.0625 -0.0625 -0.0625
v 0 -0.0625 1.1875
v 0 -0.0625 1.1875
v -0.0625 -0.0625 -0.0625
v 0 -0.0625 -0.0625
v -0.0625 -0.0625 1.1875
v -0.0625 -0.0625 1.1875
v -0.125 -0.0625 -0.0625
v -0.0625 -0.0625 -0.0625
v -0.125 -0.0625 1.1875
v -0.125 -0.0625 1.1875
v -0.1875 0 -0.0625
v -0.125 -0.0625 -0.0625
v -0.1875 0 1.1875
v -0.1875 0 1.1875
v -0.25 -0.0625 -0.0625
v -0.1875 0 -0.0625
v -0.25 -0.0625 1.1875
v -0.25 -0.0625 1.1875
v -0.3125 -0.0625 -0.0625
v -0.25 -0.0625 -0.0625
v -0.3125 -0.0625 1.1875
v -0.3125 0.375 -0.0625
v -0.25 0.3125 -0.0625
v -0.3125 0.3125 -0.0625
v -0.25 0.375 -0.0625
v -0.25 0.375 -0.0625
v -0.1875 0.25 -0.0625
v -0.25 0.3125 -0.0625
v -0.1875 0.3125 -0.0625
v -0.1875 0.3125 -0.0625
v -0.125 0.3125 -0.0625
v -0.1875 0.25 -0.0625
v -0.125 0.375 -0.0625
v -0.125 0.375 -0.0625
v -0.0625 0.3125 -0.0625
v -0.125 0.3125 -0.0625
v -0.0625 0.375 -0.0625
v -0.0625 0.375 -0.0625
v 0 0.3125 -0.0625
v -0.0625 0.3125 -0.0625
v 0 0.375 -0.0625
v 0 0.375 -0.0625
v 0.0625 0.3125 -0.0625
v 0 0.3125 -0.0625
v 0.0625 0.375 -0.0625
v 0.0625 0.375 -0.0625
v 0.125 0.3125 -0.0625
v 0.0625 0.3125 -0.0625
v 0.125 0.375 -0.0625
v 0.125 0.375 -0.0625
v 0.1875 0.3125 -0.0625
v 0.125 0.3125 -0.0625
v 0.1875 0.375 -0.0625
v 0.1875 0.375 -0.0625
v 0.25 0.3125 -0.0625
v 0.1875 0.3125 -0.0625
v 0.25 0.375 -0.0625
v 0.25 0.375 -0.0625
v 0.3125 0.3125 -0.0625
v 0.25 0.3125 -0.0625
v 0.3125 0.375 -0.0625
v 0.3125 0.375 -0.0625
v 0.375 0.3125 -0.0625
v 0.3125 0.3125 -0.0625
v 0.375 0.375 -0.0625
v 0.375 0.375 -0.0625
v 0.4375 0.3125 -0.0625
v 0.375 0.3125 -0.0625
v 0.4375 0.375 -0.0625
v 0.4375 0.375 -0.0625
v 0.5 0.3125 -0.0625
v 0.4375 0.3125 -0.0625
v 0.5 0.375 -0.0625
v 0.5 0.375 -0.0625
v 0.5625 0.3125 -0.0625
v 0.5 0.3125 -0.0625
v 0.5625 0.375 -0.0625
v 0.5625 0.375 -0.0625
v 0.625 0.3125 -0.0625
v 0.5625 0.3125 -0.0625
v 0.625 0.375 -0.0625
v 0.625 0.375 -0.0625
v 0.6875 0.3125 -0.0625
v 0.625 0.3125 -0.0625
v 0.6875 0.375 -0.0625
v 0.6875 0.375 -0.0625
v 0.75 0.3125 -0.0625
v 0.6875 0.3125 -0.0625
v 0.75 0.375 -0.0625
v 0.75 0.375 -0.0625
v 0.8125 0.3125 -0.0625
v 0.75 0.3125 -0.0625
v 0.8125 0.375 -0.0625
v -0.3125 0 -0.0625
v -0.25 -0.0625 -0.0625
v -0.3125 -0.0625 -0.0625
v -0.25 0 -0.0625
v -0.25 0 -0.0625
v -0.1875 0 -0.0625
v -0.25 -0.0625 -0.0625
v -0.1875 0.0625 -0.0625
v -0.1875 0.0625 -0.0625
v -0.125 -0.0625 -0.0625
v -0.1875 0 -0.0625
v -0.125 0 -0.0625
v -0.125 0 -0.0625
v -0.0625 -0.0625 -0.0625
v -0.125 -0.0625 -0.0625
v -0.0625 0 -0.0625
v -0.0625 0 -0.0625
v 0 -0.0625 -0.0625
v -0.0625 -0.0625 -0.0625
v 0 0 -0.0625
v 0 0 -0.0625
v 0.0625 -0.0625 -0.0625
v 0 -0.0625 -0.0625
v 0.0625 0 -0.0625
v 0.0625 0 -0.0625
v 0.125 -0.0625 -0.0625
v 0.0625 -0.0625 -0.0625
v 0.125 0 -0.0625
v 0.125 0 -0.0625
v 0.1875 -0.0625 -0.0625
v 0.125 -0.0625 -0.0625
v 0.1875 0 -0.0625
v 0.1875 0 -0.0625
v 0.25 -0.0625 -0.0625
v 0.1875 -0.0625 -0.0625
v 0.25 0 -0.0625
v 0.25 0 -0.0625
v 0.3125 -0.0625 -0.0625
v 0.25 -0.0625 -0.0625
v 0.3125 0 -0.0625
v 0.3125 0 -0.0625
v 0.375 -0.0625 -0.0625
v 0.3125 -0.0625 -0.0625
v 0.375 0 -0.0625
v 0.375 0 -0.0625
v 0.4375 -0.0625 -0.0625
v 0.375 -0.0625 -0.0625
v 0.4375 0 -0.0625
v -0.25 0 1.125
v 0 0.3125 1.125
v -0.25 0.3125 1.125
v 0 0 1.125
v 0 0 1.125
v 0.25 0.3125 1.125
v 0 0.3125 1.125
v 0.25 -0.0625 1.125
v 0.25 -0.0625 1.125
v 0.5 0.3125 1.125
v 0.25 0.3125 1.125
v 0.5 -0.0625 1.125
v 0.5 -0.0625 1.125
v 0.75 0.3125 1.125
v 0.5 0.3125 1.125
v 0.75 -0.0625 1.125
v -0.3125 0 1.1875
v -0.03125 0 1.125
v -0.3125 0 1.125
v -0.03125 0 1.1875
v -0.03125 0 1.1875
v 0.25 0 1.125
v -0.03125 0 1.125
v 0.25 0 1.1875
v 0.75 -0.0625 0
v 0.5 0.3125 0
v 0.75 0.3125 0
v 0.5 -0.0625 0
v 0.5 -0.0625 0
v 0.25 0.3125 0
v 0.5 0.3125 0
v 0.25 -0.0625 0
v 0.25 -0.0625 0
v 0 0.3125 0
v 0.25 0.3125 0
v 0 0 0
vt 0.694915235042572 0.75
vt 0.7118644118309021 0.7727272510528564
vt 0.694915235042572 0.7727272510528564
vt 0.7118644118309021 0.75
vt 0.35593220591545105 0.27272728085517883
vt 0.47457626461982727 0.7272727489471436
vt 0.35593220591545105 0.7272727489471436
vt 0.47457626461982727 0.27272728085517883
vt 0.7288135886192322 0.7727272510528564
vt 0.7288135886192322 0.75
vt 0.7457627058029175 0.7727272510528564
vt 0.7457627058029175 0.75
vt 0.7627118825912476 0.7727272510528564
vt 0.7627118825912476 0.75
vt 0.7796609997749329 0.7727272510528564
vt 0.7796609997749329 0.75
vt 0.7966101765632629 0.7727272510528564
vt 0.7966101765632629 0.75
vt 0.49152541160583496 0.7954545617103577
vt 0.7966101765632629 0.8181818127632141
vt 0.49152541160583496 0.8181818127632141
vt 0.7966101765632629 0.7954545617103577
vt 0.6440677642822266 0.7954545617103577
vt 0.7203390002250671 0.8181818127632141
vt 0.6440677642822266 0.8181818127632141
vt 0.7203390002250671 0.7954545617103577
vt 0.8135592937469482 0.27272728085517883
vt 0.8305084705352783 0.75
vt 0.8135592937469482 0.75
vt 0.8305084705352783 0.27272728085517883
vt 0.8474576473236084 0.34090909361839294
vt 0.8644067645072937 0.75
vt 0.8474576473236084 0.75
vt 0.8644067645072937 0.34090909361839294
vt 0.37288135290145874 0.22727273404598236
vt 0.4576271176338196 0.25
vt 0.37288135290145874 0.25
vt 0.4576271176338196 0.22727273404598236
vt 0.8474576473236084 0.27272728085517883
vt 0.8644067645072937 0.3863636255264282
vt 0.8474576473236084 0.3863636255264282
vt 0.8644067645072937 0.27272728085517883
vt 0 0.5227272510528564
vt 0.016949152573943138 0.6363636255264282
vt 0 0.6363636255264282
vt 0.016949152573943138 0.5227272510528564
vt 0.49152541160583496 0.022727273404598236
vt 0.7966101765632629 0.15909090638160706
vt 0.49152541160583496 0.15909090638160706
vt 0.7966101765632629 0.022727273404598236
vt 0.7118644118309021 0.022727273404598236
vt 0.7796609997749329 0.15909090638160706
vt 0.7118644118309021 0.15909090638160706
vt 0.7796609997749329 0.022727273404598236
vt 0.49152541160583496 0.27272728085517883
vt 0.508474588394165 0.7272727489471436
vt 0.49152541160583496 0.7272727489471436
vt 0.508474588394165 0.27272728085517883
vt 0.5254237055778503 0.7272727489471436
vt 0.5254237055778503 0.27272728085517883
vt 0.5423728823661804 0.7272727489471436
vt 0.5423728823661804 0.27272728085517883
vt 0.5593219995498657 0.7272727489471436
vt 0.5593219995498657 0.27272728085517883
vt 0.5762711763381958 0.7272727489471436
vt 0.5762711763381958 0.27272728085517883
vt 0.5932203531265259 0.7272727489471436
vt 0.5932203531265259 0.27272728085517883
vt 0.6101694703102112 0.7272727489471436
vt 0.6101694703102112 0.27272728085517883
vt 0.6271186470985413 0.7272727489471436
vt 0.6271186470985413 0.27272728085517883
vt 0.6440677642822266 0.7272727489471436
vt 0.6440677642822266 0.27272728085517883
vt 0.6610169410705566 0.7272727489471436
vt 0.6610169410705566 0.27272728085517883
vt 0.6779661178588867 0.7272727489471436
vt 0.6779661178588867 0.27272728085517883
vt 0.694915235042572 0.7272727489471436
vt 0.694915235042572 0.27272728085517883
vt 0.7118644118309021 0.7272727489471436
vt 0.7118644118309021 0.27272728085517883
vt 0.7288135886192322 0.7272727489471436
vt 0.7288135886192322 0.27272728085517883
vt 0.7457627058029175 0.7272727489471436
vt 0.7457627058029175 0.27272728085517883
vt 0.7627118825912476 0.7272727489471436
vt 0.7627118825912476 0.27272728085517883
vt 0.7796609997749329 0.7272727489471436
vt 0.7796609997749329 0.27272728085517883
vt 0.7966101765632629 0.7272727489471436
vt 0.7966101765632629 0.27272728085517883
vt 0.49152541160583496 0.75
vt 0.508474588394165 0.7727272510528564
vt 0.49152541160583496 0.7727272510528564
vt 0.508474588394165 0.75
vt 0.5254237055778503 0.7727272510528564
vt 0.5254237055778503 0.75
vt 0.5423728823661804 0.7727272510528564
vt 0.5423728823661804 0.75
vt 0.5593219995498657 0.7727272510528564
vt 0.5593219995498657 0.75
vt 0.5762711763381958 0.7727272510528564
vt 0.5762711763381958 0.75
vt 0.5932203531265259 0.7727272510528564
vt 0.5932203531265259 0.75
vt 0.6101694703102112 0.7727272510528564
vt 0.6101694703102112 0.75
vt 0.6271186470985413 0.7727272510528564
vt 0.6271186470985413 0.75
vt 0.6440677642822266 0.7727272510528564
vt 0.6440677642822266 0.75
vt 0.6610169410705566 0.7727272510528564
vt 0.6610169410705566 0.75
vt 0.6779661178588867 0.7727272510528564
vt 0.6779661178588867 0.75
vt 0.033898305147886276 0.27272728085517883
vt 0.050847459584474564 0.7272727489471436
vt 0.033898305147886276 0.7272727489471436
vt 0.050847459584474564 0.27272728085517883
vt 0.06779661029577255 0.7272727489471436
vt 0.06779661029577255 0.27272728085517883
vt 0.08474576473236084 0.7272727489471436
vt 0.08474576473236084 0.27272728085517883
vt 0.10169491916894913 0.7272727489471436
vt 0.10169491916894913 0.27272728085517883
vt 0.11864407360553741 0.7272727489471436
vt 0.11864407360553741 0.27272728085517883
vt 0.1355932205915451 0.7272727489471436
vt 0.1355932205915451 0.27272728085517883
vt 0.152542382478714 0.7272727489471436
vt 0.152542382478714 0.27272728085517883
vt 0.16949152946472168 0.7272727489471436
vt 0.16949152946472168 0.27272728085517883
vt 0.18644067645072937 0.7272727489471436
vt 0.18644067645072937 0.27272728085517883
vt 0.20338983833789825 0.7272727489471436
vt 0.20338983833789825 0.27272728085517883
vt 0.22033898532390594 0.7272727489471436
vt 0.22033898532390594 0.27272728085517883
vt 0.23728814721107483 0.7272727489471436
vt 0.23728814721107483 0.27272728085517883
vt 0.2542372941970825 0.7272727489471436
vt 0.2542372941970825 0.27272728085517883
vt 0.2711864411830902 0.7272727489471436
vt 0.2711864411830902 0.27272728085517883
vt 0.2881355881690979 0.7272727489471436
vt 0.2881355881690979 0.27272728085517883
vt 0.305084764957428 0.7272727489471436
vt 0.305084764957428 0.27272728085517883
vt 0.32203391194343567 0.7272727489471436
vt 0.32203391194343567 0.27272728085517883
vt 0.33898305892944336 0.7272727489471436
vt 0.33898305892944336 0.27272728085517883
vt 0.5254237055778503 0.022727273404598236
vt 0.5932203531265259 0.15909090638160706
vt 0.5254237055778503 0.15909090638160706
vt 0.5932203531265259 0.022727273404598236
vt 0.6610169410705566 0.15909090638160706
vt 0.6610169410705566 0.022727273404598236
vt 0.7288135290145874 0.15909090638160706
vt 0.7288135290145874 0.022727273404598236
vt 0.5677965879440308 0.8181818127632141
vt 0.5677965879440308 0.7954545617103577
vt 0.508474588394165 0.022727273404598236
vt 0.5762711763381958 0.15909090638160706
vt 0.508474588394165 0.15909090638160706
vt 0.5762711763381958 0.022727273404598236
vt 0.6440677642822266 0.15909090638160706
vt 0.6440677642822266 0.022727273404598236
vn 0 0 -1
vn -1 0 0
vn 0 -1 0
vn 0 1 0
vn 1 0 0
vn 0 0 1
vn 0.70710678 0.70710678 0
vn -0.70710678 0.70710678 0
vn -0.70710678 -0.70710678 0
vn 0.70710678 -0.70710678 0
g Blue Book
usemtl Book
f 1/1/1 3/2/1 2/3/1
f 1/1/1 4/4/1 3/2/1
f 5/5/2 6/6/2 7/7/2
f 5/5/2 8/8/2 6/6/2
f 9/4/1 10/9/1 11/2/1
f 9/4/1 12/10/1 10/9/1
f 13/10/1 14/11/1 15/9/1
f 13/10/1 16/12/1 14/11/1
f 17/12/1 18/13/1 19/11/1
f 17/12/1 20/14/1 18/13/1
f 21/14/1 22/15/1 23/13/1
f 21/14/1 24/16/1 22/15/1
f 25/16/1 26/17/1 27/15/1
f 25/16/1 28/18/1 26/17/1
f 29/19/3 30/20/3 31/21/3
f 29/19/3 32/22/3 30/20/3
f 33/23/4 34/24/4 35/25/4
f 33/23/4 36/26/4 34/24/4
f 37/19/4 38/20/4 39/21/4
f 37/19/4 40/22/4 38/20/4
f 41/19/3 42/20/3 43/21/3
f 41/19/3 44/22/3 42/20/3
f 45/27/5 46/28/5 47/29/5
f 45/27/5 48/30/5 46/28/5
f 49/27/5 50/28/5 51/29/5
f 49/27/5 52/30/5 50/28/5
f 53/31/4 54/32/4 55/33/4
f 53/31/4 56/34/4 54/32/4
f 57/31/3 58/32/3 59/33/3
f 57/31/3 60/34/3 58/32/3
f 61/26/4 62/20/4 63/24/4
f 61/26/4 64/22/4 62/20/4
f 65/35/6 66/36/6 67/37/6
f 65/35/6 68/38/6 66/36/6
f 69/39/5 70/40/5 71/41/5
f 69/39/5 72/42/5 70/40/5
f 73/39/5 74/40/5 75/41/5
f 73/39/5 76/42/5 74/40/5
f 77/43/1 78/44/1 79/45/1
f 77/43/1 80/46/1 78/44/1
f 81/47/5 82/48/5 83/49/5
f 81/47/5 84/50/5 82/48/5
f 85/51/1 86/52/1 87/53/1
f 85/51/1 88/54/1 86/52/1
f 89/55/4 90/56/4 91/57/4
f 89/55/4 92/58/4 90/56/4
f 93/58/7 94/59/7 95/56/7
f 93/58/7 96/60/7 94/59/7
f 97/60/8 98/61/8 99/59/8
f 97/60/8 100/62/8 98/61/8
f 101/62/4 102/63/4 103/61/4
f 101/62/4 104/64/4 102/63/4
f 105/64/4 106/65/4 107/63/4
f 105/64/4 108/66/4 106/65/4
f 109/66/4 110/67/4 111/65/4
f 109/66/4 112/68/4 110/67/4
f 113/68/4 114/69/4 115/67/4
f 113/68/4 116/70/4 114/69/4
f 117/70/4 118/71/4 119/69/4
f 117/70/4 120/72/4 118/71/4
f 121/72/4 122/73/4 123/71/4
f 121/72/4 124/74/4 122/73/4
f 125/74/4 126/75/4 127/73/4
f 125/74/4 128/76/4 126/75/4
f 129/76/4 130/77/4 131/75/4
f 129/76/4 132/78/4 130/77/4
f 133/78/4 134/79/4 135/77/4
f 133/78/4 136/80/4 134/79/4
f 137/80/4 138/81/4 139/79/4
f 137/80/4 140/82/4 138/81/4
f 141/82/4 142/83/4 143/81/4
f 141/82/4 144/84/4 142/83/4
f 145/84/4 146/85/4 147/83/4
f 145/84/4 148/86/4 146/85/4
f 149/86/4 150/87/4 151/85/4
f 149/86/4 152/88/4 150/87/4
f 153/88/4 154/89/4 155/87/4
f 153/88/4 156/90/4 154/89/4
f 157/90/4 158/91/4 159/89/4
f 157/90/4 160/92/4 158/91/4
f 161/93/6 162/94/6 163/95/6
f 161/93/6 164/96/6 162/94/6
f 165/96/6 166/97/6 167/94/6
f 165/96/6 168/98/6 166/97/6
f 169/98/6 170/99/6 171/97/6
f 169/98/6 172/100/6 170/99/6
f 173/100/6 174/101/6 175/99/6
f 173/100/6 176/102/6 174/101/6
f 177/102/6 178/103/6 179/101/6
f 177/102/6 180/104/6 178/103/6
f 181/104/6 182/105/6 183/103/6
f 181/104/6 184/106/6 182/105/6
f 185/106/6 186/107/6 187/105/6
f 185/106/6 188/108/6 186/107/6
f 189/108/6 190/109/6 191/107/6
f 189/108/6 192/110/6 190/109/6
f 193/110/6 194/111/6 195/109/6
f 193/110/6 196/112/6 194/111/6
f 197/112/6 198/113/6 199/111/6
f 197/112/6 200/114/6 198/113/6
f 201/114/6 202/115/6 203/113/6
f 201/114/6 204/116/6 202/115/6
f 205/116/6 206/3/6 207/115/6
f 205/116/6 208/1/6 206/3/6
f 209/1/6 210/2/6 211/3/6
f 209/1/6 212/4/6 210/2/6
f 213/4/6 214/9/6 215/2/6
f 213/4/6 216/10/6 214/9/6
f 217/10/6 218/11/6 219/9/6
f 217/10/6 220/12/6 218/11/6
f 221/12/6 222/13/6 223/11/6
f 221/12/6 224/14/6 222/13/6
f 225/14/6 226/15/6 227/13/6
f 225/14/6 228/16/6 226/15/6
f 229/16/6 230/17/6 231/15/6
f 229/16/6 232/18/6 230/17/6
f 233/93/6 234/94/6 235/95/6
f 233/93/6 236/96/6 234/94/6
f 237/96/6 238/97/6 239/94/6
f 237/96/6 240/98/6 238/97/6
f 241/98/6 242/99/6 243/97/6
f 241/98/6 244/100/6 242/99/6
f 245/100/6 246/101/6 247/99/6
f 245/100/6 248/102/6 246/101/6
f 249/102/6 250/103/6 251/101/6
f 249/102/6 252/104/6 250/103/6
f 253/104/6 254/105/6 255/103/6
f 253/104/6 256/106/6 254/105/6
f 257/106/6 258/107/6 259/105/6
f 257/106/6 260/108/6 258/107/6
f 261/108/6 262/109/6 263/107/6
f 261/108/6 264/110/6 262/109/6
f 265/110/6 266/111/6 267/109/6
f 265/110/6 268/112/6 266/111/6
f 269/112/6 270/113/6 271/111/6
f 269/112/6 272/114/6 270/113/6
f 273/114/6 274/115/6 275/113/6
f 273/114/6 276/116/6 274/115/6
f 277/116/6 278/3/6 279/115/6
f 277/116/6 280/1/6 278/3/6
f 281/1/6 282/2/6 283/3/6
f 281/1/6 284/4/6 282/2/6
f 285/4/6 286/9/6 287/2/6
f 285/4/6 288/10/6 286/9/6
f 289/10/6 290/11/6 291/9/6
f 289/10/6 292/12/6 290/11/6
f 293/12/6 294/13/6 295/11/6
f 293/12/6 296/14/6 294/13/6
f 297/14/6 298/15/6 299/13/6
f 297/14/6 300/16/6 298/15/6
f 301/16/6 302/17/6 303/15/6
f 301/16/6 304/18/6 302/17/6
f 305/117/3 306/118/3 307/119/3
f 305/117/3 308/120/3 306/118/3
f 309/120/3 310/121/3 311/118/3
f 309/120/3 312/122/3 310/121/3
f 313/122/3 314/123/3 315/121/3
f 313/122/3 316/124/3 314/123/3
f 317/124/3 318/125/3 319/123/3
f 317/124/3 320/126/3 318/125/3
f 321/126/3 322/127/3 323/125/3
f 321/126/3 324/128/3 322/127/3
f 325/128/3 326/129/3 327/127/3
f 325/128/3 328/130/3 326/129/3
f 329/130/3 330/131/3 331/129/3
f 329/130/3 332/132/3 330/131/3
f 333/132/3 334/133/3 335/131/3
f 333/132/3 336/134/3 334/133/3
f 337/134/3 338/135/3 339/133/3
f 337/134/3 340/136/3 338/135/3
f 341/136/3 342/137/3 343/135/3
f 341/136/3 344/138/3 342/137/3
f 345/138/3 346/139/3 347/137/3
f 345/138/3 348/140/3 346/139/3
f 349/140/3 350/141/3 351/139/3
f 349/140/3 352/142/3 350/141/3
f 353/142/3 354/143/3 355/141/3
f 353/142/3 356/144/3 354/143/3
f 357/144/3 358/145/3 359/143/3
f 357/144/3 360/146/3 358/145/3
f 361/146/3 362/147/3 363/145/3
f 361/146/3 364/148/3 362/147/3
f 365/148/9 366/149/9 367/147/9
f 365/148/9 368/150/9 366/149/9
f 369/150/10 370/151/10 371/149/10
f 369/150/10 372/152/10 370/151/10
f 373/152/3 374/153/3 375/151/3
f 373/152/3 376/154/3 374/153/3
f 377/93/1 378/94/1 379/95/1
f 377/93/1 380/96/1 378/94/1
f 381/96/1 382/97/1 383/94/1
f 381/96/1 384/98/1 382/97/1
f 385/98/1 386/99/1 387/97/1
f 385/98/1 388/100/1 386/99/1
f 389/100/1 390/101/1 391/99/1
f 389/100/1 392/102/1 390/101/1
f 393/102/1 394/103/1 395/101/1
f 393/102/1 396/104/1 394/103/1
f 397/104/1 398/105/1 399/103/1
f 397/104/1 400/106/1 398/105/1
f 401/106/1 402/107/1 403/105/1
f 401/106/1 404/108/1 402/107/1
f 405/108/1 406/109/1 407/107/1
f 405/108/1 408/110/1 406/109/1
f 409/110/1 410/111/1 411/109/1
f 409/110/1 412/112/1 410/111/1
f 413/112/1 414/113/1 415/111/1
f 413/112/1 416/114/1 414/113/1
f 417/114/1 418/115/1 419/113/1
f 417/114/1 420/116/1 418/115/1
f 421/116/1 422/3/1 423/115/1
f 421/116/1 424/1/1 422/3/1
f 425/1/1 426/2/1 427/3/1
f 425/1/1 428/4/1 426/2/1
f 429/4/1 430/9/1 431/2/1
f 429/4/1 432/10/1 430/9/1
f 433/10/1 434/11/1 435/9/1
f 433/10/1 436/12/1 434/11/1
f 437/12/1 438/13/1 439/11/1
f 437/12/1 440/14/1 438/13/1
f 441/14/1 442/15/1 443/13/1
f 441/14/1 444/16/1 442/15/1
f 445/16/1 446/17/1 447/15/1
f 445/16/1 448/18/1 446/17/1
f 449/93/1 450/94/1 451/95/1
f 449/93/1 452/96/1 450/94/1
f 453/96/1 454/97/1 455/94/1
f 453/96/1 456/98/1 454/97/1
f 457/98/1 458/99/1 459/97/1
f 457/98/1 460/100/1 458/99/1
f 461/100/1 462/101/1 463/99/1
f 461/100/1 464/102/1 462/101/1
f 465/102/1 466/103/1 467/101/1
f 465/102/1 468/104/1 466/103/1
f 469/104/1 470/105/1 471/103/1
f 469/104/1 472/106/1 470/105/1
f 473/106/1 474/107/1 475/105/1
f 473/106/1 476/108/1 474/107/1
f 477/108/1 478/109/1 479/107/1
f 477/108/1 480/110/1 478/109/1
f 481/110/1 482/111/1 483/109/1
f 481/110/1 484/112/1 482/111/1
f 485/112/1 486/113/1 487/111/1
f 485/112/1 488/114/1 486/113/1
f 489/114/1 490/115/1 491/113/1
f 489/114/1 492/116/1 490/115/1
f 493/116/1 494/3/1 495/115/1
f 493/116/1 496/1/1 494/3/1
f 497/155/6 498/156/6 499/157/6
f 497/155/6 500/158/6 498/156/6
f 501/158/6 502/159/6 503/156/6
f 501/158/6 504/160/6 502/159/6
f 505/160/6 506/161/6 507/159/6
f 505/160/6 508/162/6 506/161/6
f 509/162/6 510/48/6 511/161/6
f 509/162/6 512/50/6 510/48/6
f 513/19/4 514/163/4 515/21/4
f 513/19/4 516/164/4 514/163/4
f 517/164/4 518/25/4 519/163/4
f 517/164/4 520/23/4 518/25/4
f 521/165/1 522/166/1 523/167/1
f 521/165/1 524/168/1 522/166/1
f 525/168/1 526/169/1 527/166/1
f 525/168/1 528/170/1 526/169/1
f 529/170/1 530/53/1 531/169/1
f 529/170/1 532/51/1 530/53/1
