mtllib material.mtl
o Default
v 0.5625 -0.0625 0
v 0.5625 -0.0625 1.25
v 0.625 -0.0625 1.25
v 0.625 -0.0625 0
v -0.875 -0.0625 0
v -0.4375 -0.0625 1.25
v -0.875 -0.0625 1.25
v -0.4375 -0.0625 0
v 0.625 -0.0625 0
v 0.6875 -0.0625 1.25
v 0.625 -0.0625 1.25
v 0.6875 -0.0625 0
v 0.4375 0 0
v 0.5 -0.0625 0
v 0.4375 -0.0625 0
v 0.5 0 0
v -0.875 -0.0625 1.25
v -0.4375 0 1.25
v -0.875 0 1.25
v -0.4375 -0.0625 1.25
v 0.5 0 0
v 0.5625 -0.0625 0
v 0.5 -0.0625 0
v 0.5625 0 0
v 0.6875 0 1.25
v 0.6875 -0.0625 0
v 0.6875 0 0
v 0.6875 -0.0625 1.25
v 0.5625 0 0
v 0.625 -0.0625 0
v 0.5625 -0.0625 0
v 0.625 0 0
v -0.4375 -0.0625 0
v -0.875 0 0
v -0.4375 0 0
v -0.875 -0.0625 0
v 0.625 0 0
v 0.6875 -0.0625 0
v 0.625 -0.0625 0
v 0.6875 0 0
v -2 0 0
v -2 -0.0625 1.25
v -2 0 1.25
v -2 -0.0625 0
v -2 0 1.25
v -0.875 0 1.1875
v -2 0 1.1875
v -0.875 0 1.25
v -0.5 0 0.0625
v -0.8125 0.0625 0.0625
v -0.5 0.0625 0.0625
v -0.8125 0 0.0625
v -0.875 0 1.25
v -0.4375 0 1.1875
v -0.875 0 1.1875
v -0.4375 0 1.25
v 0.625 0 0.0625
v 0.6875 0 1.1875
v 0.6875 0 0.0625
v 0.625 0 1.1875
v -0.4375 0 0.0625
v 0.6875 0 0
v -0.4375 0 0
v 0.6875 0 0.0625
v -0.875 0 0.0625
v -0.4375 0 0
v -0.875 0 0
v -0.4375 0 0.0625
v -2 0 0.0625
v -0.875 0 0
v -2 0 0
v -0.875 0 0.0625
v -2 0 1.1875
v -1.9375 0 0.0625
v -2 0 0.0625
v -1.9375 0 1.1875
v -1.9375 0 1.1875
v -0.8125 0.0625 1.1875
v -1.9375 0.0625 1.1875
v -0.8125 0 1.1875
v -1.9375 0 0.0625
v -1.9375 0.0625 1.1875
v -1.9375 0.0625 0.0625
v -1.9375 0 1.1875
v -0.9375 0.0625 0.0625
v -1.9375 0.0625 0.0625
v -0.9375 0.25 0.0625
v -1 0.0625 0.0625
v -0.4375 0 1.25
v 0.6875 0 1.1875
v -0.4375 0 1.1875
v 0.6875 0 1.25
v -0.5 0 1.1875
v 0.625 0.0625 1.1875
v -0.5 0.0625 1.1875
v 0.625 0 1.1875
v 0.625 0 1.1875
v 0.625 0.0625 0.0625
v 0.625 0.0625 1.1875
v 0.625 0 0.0625
v 0.625 0 0.0625
v -0.5 0.0625 0.0625
v 0.625 0.0625 0.0625
v -0.5 0 0.0625
v -0.8125 0 1.1875
v -0.5 0.0625 1.1875
v -0.8125 0.0625 1.1875
v -0.5 0 1.1875
v -0.8125 0 0.0625
v -1.9375 0.0625 0.0625
v -0.8125 0.0625 0.0625
v -1.9375 0 0.0625
v -1.9375 0.0625 1.1875
v -0.9375 0.25 0.0625
v -1.9375 0.0625 0.0625
v -0.9375 0.25 1.1875
v -0.46875 0.25 1.1875
v -0.375 0.25 0.0625
v -0.46875 0.25 0.0625
v -0.375 0.25 1.1875
v -0.9375 0.25 1.1875
v -0.84375 0.25 0.0625
v -0.9375 0.25 0.0625
v -0.84375 0.25 1.1875
v -0.84375 0.25 1.1875
v -0.75 0.1875 0.0625
v -0.84375 0.25 0.0625
v -0.75 0.1875 1.1875
v -0.75 0.1875 1.1875
v -0.65625 0.0625 0.0625
v -0.75 0.1875 0.0625
v -0.65625 0.0625 1.1875
v -0.65625 0.0625 1.1875
v -0.5625 0.1875 0.0625
v -0.65625 0.0625 0.0625
v -0.5625 0.1875 1.1875
v -0.5625 0.1875 1.1875
v -0.46875 0.25 0.0625
v -0.5625 0.1875 0.0625
v -0.46875 0.25 1.1875
v -2 -0.0625 0
v -1.9375 -0.0625 1.25
v -2 -0.0625 1.25
v -1.9375 -0.0625 0
v -1.9375 -0.0625 0
v -1.875 -0.0625 1.25
v -1.9375 -0.0625 1.25
v -1.875 -0.0625 0
v -1.875 -0.0625 0
v -1.8125 -0.0625 1.25
v -1.875 -0.0625 1.25
v -1.8125 -0.0625 0
v -1.8125 -0.0625 0
v -1.75 -0.0625 1.25
v -1.8125 -0.0625 1.25
v -1.75 -0.0625 0
v -1.75 -0.0625 0
v -1.6875 -0.0625 1.25
v -1.75 -0.0625 1.25
v -1.6875 -0.0625 0
v -1.6875 -0.0625 0
v -1.625 -0.0625 1.25
v -1.6875 -0.0625 1.25
v -1.625 -0.0625 0
v -1.625 -0.0625 0
v -1.5625 -0.0625 1.25
v -1.625 -0.0625 1.25
v -1.5625 -0.0625 0
v -1.5625 -0.0625 0
v -1.5 -0.0625 1.25
v -1.5625 -0.0625 1.25
v -1.5 -0.0625 0
v -1.5 -0.0625 0
v -1.4375 -0.0625 1.25
v -1.5 -0.0625 1.25
v -1.4375 -0.0625 0
v -1.4375 -0.0625 0
v -1.375 -0.0625 1.25
v -1.4375 -0.0625 1.25
v -1.375 -0.0625 0
v -1.375 -0.0625 0
v -1.3125 -0.0625 1.25
v -1.375 -0.0625 1.25
v -1.3125 -0.0625 0
v -1.3125 -0.0625 0
v -1.25 -0.0625 1.25
v -1.3125 -0.0625 1.25
v -1.25 -0.0625 0
v -1.25 -0.0625 0
v -1.1875 -0.0625 1.25
v -1.25 -0.0625 1.25
v -1.1875 -0.0625 0
v -1.1875 -0.0625 0
v -1.125 -0.0625 1.25
v -1.1875 -0.0625 1.25
v -1.125 -0.0625 0
v -1.125 -0.0625 0
v -1.0625 -0.0625 1.25
v -1.125 -0.0625 1.25
v -1.0625 -0.0625 0
v -1.0625 -0.0625 0
v -1 0 1.25
v -1.0625 -0.0625 1.25
v -1 0 0
v -1 0 0
v -0.9375 -0.0625 1.25
v -1 0 1.25
v -0.9375 -0.0625 0
v -0.9375 -0.0625 0
v -0.875 -0.0625 1.25
v -0.9375 -0.0625 1.25
v -0.875 -0.0625 0
v -0.4375 -0.0625 0
v -0.375 -0.0625 1.25
v -0.4375 -0.0625 1.25
v -0.375 -0.0625 0
v -0.375 -0.0625 0
v -0.3125 0 1.25
v -0.375 -0.0625 1.25
v -0.3125 0 0
v -0.3125 0 0
v -0.25 -0.0625 1.25
v -0.3125 0 1.25
v -0.25 -0.0625 0
v -0.25 -0.0625 0
v -0.1875 -0.0625 1.25
v -0.25 -0.0625 1.25
v -0.1875 -0.0625 0
v -0.1875 -0.0625 0
v -0.125 -0.0625 1.25
v -0.1875 -0.0625 1.25
v -0.125 -0.0625 0
v -0.125 -0.0625 0
v -0.0625 -0.0625 1.25
v -0.125 -0.0625 1.25
v -0.0625 -0.0625 0
v -0.0625 -0.0625 0
v 0 -0.0625 1.25
v -0.0625 -0.0625 1.25
v 0 -0.0625 0
v 0 -0.0625 0
v 0.0625 -0.0625 1.25
v 0 -0.0625 1.25
v 0.0625 -0.0625 0
v 0.0625 -0.0625 0
v 0.125 -0.0625 1.25
v 0.0625 -0.0625 1.25
v 0.125 -0.0625 0
v 0.125 -0.0625 0
v 0.1875 -0.0625 1.25
v 0.125 -0.0625 1.25
v 0.1875 -0.0625 0
v 0.1875 -0.0625 0
v 0.25 -0.0625 1.25
v 0.1875 -0.0625 1.25
v 0.25 -0.0625 0
v 0.25 -0.0625 0
v 0.3125 -0.0625 1.25
v 0.25 -0.0625 1.25
v 0.3125 -0.0625 0
v 0.3125 -0.0625 0
v 0.375 -0.0625 1.25
v 0.3125 -0.0625 1.25
v 0.375 -0.0625 0
v 0.375 -0.0625 0
v 0.4375 -0.0625 1.25
v 0.375 -0.0625 1.25
v 0.4375 -0.0625 0
v 0.4375 -0.0625 0
v 0.5 -0.0625 1.25
v 0.4375 -0.0625 1.25
v 0.5 -0.0625 0
v 0.5 -0.0625 0
v 0.5625 -0.0625 1.25
v 0.5 -0.0625 1.25
v 0.5625 -0.0625 0
v -2 -0.0625 1.25
v -1.9375 0 1.25
v -2 0 1.25
v -1.9375 -0.0625 1.25
v -1.9375 -0.0625 1.25
v -1.875 0 1.25
v -1.9375 0 1.25
v -1.875 -0.0625 1.25
v -1.875 -0.0625 1.25
v -1.8125 0 1.25
v -1.875 0 1.25
v -1.8125 -0.0625 1.25
v -1.8125 -0.0625 1.25
v -1.75 0 1.25
v -1.8125 0 1.25
v -1.75 -0.0625 1.25
v -1.75 -0.0625 1.25
v -1.6875 0 1.25
v -1.75 0 1.25
v -1.6875 -0.0625 1.25
v -1.6875 -0.0625 1.25
v -1.625 0 1.25
v -1.6875 0 1.25
v -1.625 -0.0625 1.25
v -1.625 -0.0625 1.25
v -1.5625 0 1.25
v -1.625 0 1.25
v -1.5625 -0.0625 1.25
v -1.5625 -0.0625 1.25
v -1.5 0 1.25
v -1.5625 0 1.25
v -1.5 -0.0625 1.25
v -1.5 -0.0625 1.25
v -1.4375 0 1.25
v -1.5 0 1.25
v -1.4375 -0.0625 1.25
v -1.4375 -0.0625 1.25
v -1.375 0 1.25
v -1.4375 0 1.25
v -1.375 -0.0625 1.25
v -1.375 -0.0625 1.25
v -1.3125 0 1.25
v -1.375 0 1.25
v -1.3125 -0.0625 1.25
v -1.3125 -0.0625 1.25
v -1.25 0 1.25
v -1.3125 0 1.25
v -1.25 -0.0625 1.25
v -1.25 -0.0625 1.25
v -1.1875 0 1.25
v -1.25 0 1.25
v -1.1875 -0.0625 1.25
v -1.1875 -0.0625 1.25
v -1.125 0 1.25
v -1.1875 0 1.25
v -1.125 -0.0625 1.25
v -1.125 -0.0625 1.25
v -1.0625 0 1.25
v -1.125 0 1.25
v -1.0625 -0.0625 1.25
v -1.0625 -0.0625 1.25
v -1 0.0625 1.25
v -1.0625 0 1.25
v -1 0 1.25
v -1 0 1.25
v -0.9375 0 1.25
v -1 0.0625 1.25
v -0.9375 -0.0625 1.25
v -0.9375 -0.0625 1.25
v -0.875 0 1.25
v -0.9375 0 1.25
v -0.875 -0.0625 1.25
v -0.4375 -0.0625 1.25
v -0.375 0 1.25
v -0.4375 0 1.25
v -0.375 -0.0625 1.25
v -0.375 -0.0625 1.25
v -0.3125 0.0625 1.25
v -0.375 0 1.25
v -0.3125 0 1.25
v -0.3125 0 1.25
v -0.25 0 1.25
v -0.3125 0.0625 1.25
v -0.25 -0.0625 1.25
v -0.25 -0.0625 1.25
v -0.1875 0 1.25
v -0.25 0 1.25
v -0.1875 -0.0625 1.25
v -0.1875 -0.0625 1.25
v -0.125 0 1.25
v -0.1875 0 1.25
v -0.125 -0.0625 1.25
v -0.125 -0.0625 1.25
v -0.0625 0 1.25
v -0.125 0 1.25
v -0.0625 -0.0625 1.25
v -0.0625 -0.0625 1.25
v 0 0 1.25
v -0.0625 0 1.25
v 0 -0.0625 1.25
v 0 -0.0625 1.25
v 0.0625 0 1.25
v 0 0 1.25
v 0.0625 -0.0625 1.25
v 0.0625 -0.0625 1.25
v 0.125 0 1.25
v 0.0625 0 1.25
v 0.125 -0.0625 1.25
v 0.125 -0.0625 1.25
v 0.1875 0 1.25
v 0.125 0 1.25
v 0.1875 -0.0625 1.25
v 0.1875 -0.0625 1.25
v 0.25 0 1.25
v 0.1875 0 1.25
v 0.25 -0.0625 1.25
v 0.25 -0.0625 1.25
v 0.3125 0 1.25
v 0.25 0 1.25
v 0.3125 -0.0625 1.25
v 0.3125 -0.0625 1.25
v 0.375 0 1.25
v 0.3125 0 1.25
v 0.375 -0.0625 1.25
v 0.375 -0.0625 1.25
v 0.4375 0 1.25
v 0.375 0 1.25
v 0.4375 -0.0625 1.25
v 0.4375 -0.0625 1.25
v 0.5 0 1.25
v 0.4375 0 1.25
v 0.5 -0.0625 1.25
v 0.5 -0.0625 1.25
v 0.5625 0 1.25
v 0.5 0 1.25
v 0.5625 -0.0625 1.25
v 0.5625 -0.0625 1.25
v 0.625 0 1.25
v 0.5625 0 1.25
v 0.625 -0.0625 1.25
v 0.625 -0.0625 1.25
v 0.6875 0 1.25
v 0.625 0 1.25
v 0.6875 -0.0625 1.25
v -2 0 0
v -1.9375 -0.0625 0
v -2 -0.0625 0
v -1.9375 0 0
v -1.9375 0 0
v -1.875 -0.0625 0
v -1.9375 -0.0625 0
v -1.875 0 0
v -1.875 0 0
v -1.8125 -0.0625 0
v -1.875 -0.0625 0
v -1.8125 0 0
v -1.8125 0 0
v -1.75 -0.0625 0
v -1.8125 -0.0625 0
v -1.75 0 0
v -1.75 0 0
v -1.6875 -0.0625 0
v -1.75 -0.0625 0
v -1.6875 0 0
v -1.6875 0 0
v -1.625 -0.0625 0
v -1.6875 -0.0625 0
v -1.625 0 0
v -1.625 0 0
v -1.5625 -0.0625 0
v -1.625 -0.0625 0
v -1.5625 0 0
v -1.5625 0 0
v -1.5 -0.0625 0
v -1.5625 -0.0625 0
v -1.5 0 0
v -1.5 0 0
v -1.4375 -0.0625 0
v -1.5 -0.0625 0
v -1.4375 0 0
v -1.4375 0 0
v -1.375 -0.0625 0
v -1.4375 -0.0625 0
v -1.375 0 0
v -1.375 0 0
v -1.3125 -0.0625 0
v -1.375 -0.0625 0
v -1.3125 0 0
v -1.3125 0 0
v -1.25 -0.0625 0
v -1.3125 -0.0625 0
v -1.25 0 0
v -1.25 0 0
v -1.1875 -0.0625 0
v -1.25 -0.0625 0
v -1.1875 0 0
v -1.1875 0 0
v -1.125 -0.0625 0
v -1.1875 -0.0625 0
v -1.125 0 0
v -1.125 0 0
v -1.0625 -0.0625 0
v -1.125 -0.0625 0
v -1.0625 0 0
v -1.0625 0 0
v -1 0 0
v -1.0625 -0.0625 0
v -1 0.0625 0
v -1 0.0625 0
v -0.9375 -0.0625 0
v -1 0 0
v -0.9375 0 0
v -0.9375 0 0
v -0.875 -0.0625 0
v -0.9375 -0.0625 0
v -0.875 0 0
v -0.4375 0 0
v -0.375 -0.0625 0
v -0.4375 -0.0625 0
v -0.375 0 0
v -0.375 0 0
v -0.3125 0 0
v -0.375 -0.0625 0
v -0.3125 0.0625 0
v -0.3125 0.0625 0
v -0.25 -0.0625 0
v -0.3125 0 0
v -0.25 0 0
v -0.25 0 0
v -0.1875 -0.0625 0
v -0.25 -0.0625 0
v -0.1875 0 0
v -0.1875 0 0
v -0.125 -0.0625 0
v -0.1875 -0.0625 0
v -0.125 0 0
v -0.125 0 0
v -0.0625 -0.0625 0
v -0.125 -0.0625 0
v -0.0625 0 0
v -0.0625 0 0
v 0 -0.0625 0
v -0.0625 -0.0625 0
v 0 0 0
v 0 0 0
v 0.0625 -0.0625 0
v 0 -0.0625 0
v 0.0625 0 0
v 0.0625 0 0
v 0.125 -0.0625 0
v 0.0625 -0.0625 0
v 0.125 0 0
v 0.125 0 0
v 0.1875 -0.0625 0
v 0.125 -0.0625 0
v 0.1875 0 0
v 0.1875 0 0
v 0.25 -0.0625 0
v 0.1875 -0.0625 0
v 0.25 0 0
v 0.25 0 0
v 0.3125 -0.0625 0
v 0.25 -0.0625 0
v 0.3125 0 0
v 0.3125 0 0
v 0.375 -0.0625 0
v 0.3125 -0.0625 0
v 0.375 0 0
v 0.375 0 0
v 0.4375 -0.0625 0
v 0.375 -0.0625 0
v 0.4375 0 0
v -0.875 0.0625 1.1875
v -0.75 0.1875 1.1875
v -0.84375 0.25 1.1875
v -0.65625 0.0625 1.1875
v -0.65625 0.0625 1.1875
v -0.46875 0.25 1.1875
v -0.5625 0.1875 1.1875
v -0.4375 0.0625 1.1875
v -0.65625 0.0625 0.0625
v -0.84375 0.25 0.0625
v -0.75 0.1875 0.0625
v -0.8125 0.0625 0.0625
v -0.5 0.0625 0.0625
v -0.5625 0.1875 0.0625
v -0.46875 0.25 0.0625
v -0.65625 0.0625 0.0625
v -0.4375 0.0625 1.1875
v -0.375 0.25 1.1875
v -0.46875 0.25 1.1875
v -0.3125 0.0625 1.1875
v -1 0.0625 1.1875
v -0.84375 0.25 1.1875
v -0.9375 0.25 1.1875
v -0.875 0.0625 1.1875
v -0.375 0.0625 0.0625
v -0.46875 0.25 0.0625
v -0.375 0.25 0.0625
v -0.5 0.0625 0.0625
v -0.8125 0.0625 0.0625
v -0.9375 0.25 0.0625
v -0.84375 0.25 0.0625
v -0.9375 0.0625 0.0625
v -1.0625 0.0625 1.1875
v -0.9375 0.25 1.1875
v -1.9375 0.0625 1.1875
v -1 0.0625 1.1875
v -0.3125 0.0625 1.1875
v 0.625 0.0625 1.1875
v -0.375 0.25 1.1875
v -0.25 0.0625 1.1875
v -0.3125 0.0625 0.0625
v -0.375 0.25 0.0625
v 0.625 0.0625 0.0625
v -0.375 0.0625 0.0625
v -0.375 0.25 1.1875
v 0.625 0.0625 0.0625
v -0.375 0.25 0.0625
v 0.625 0.0625 1.1875
vt 0.5844155550003052 0.27272728085517883
vt 0.5974025726318359 0.7272727489471436
vt 0.5844155550003052 0.7272727489471436
vt 0.5974025726318359 0.27272728085517883
vt 0.27272728085517883 0.27272728085517883
vt 0.3636363744735718 0.7272727489471436
vt 0.27272728085517883 0.7272727489471436
vt 0.3636363744735718 0.27272728085517883
vt 0.6103895902633667 0.7272727489471436
vt 0.6103895902633667 0.27272728085517883
vt 0.5584415197372437 0.75
vt 0.5714285373687744 0.7727272510528564
vt 0.5584415197372437 0.7727272510528564
vt 0.5714285373687744 0.75
vt 0.27272728085517883 0.22727273404598236
vt 0.3636363744735718 0.25
vt 0.27272728085517883 0.25
vt 0.3636363744735718 0.22727273404598236
vt 0.5844155550003052 0.7727272510528564
vt 0.5844155550003052 0.75
vt 0.6233766078948975 0.27272728085517883
vt 0.6363636255264282 0.7272727489471436
vt 0.6233766078948975 0.7272727489471436
vt 0.6363636255264282 0.27272728085517883
vt 0.5974025726318359 0.7727272510528564
vt 0.5974025726318359 0.75
vt 0.27272728085517883 0.75
vt 0.3636363744735718 0.7727272510528564
vt 0.27272728085517883 0.7727272510528564
vt 0.3636363744735718 0.75
vt 0.6103895902633667 0.7727272510528564
vt 0.6103895902633667 0.75
vt 0 0.27272728085517883
vt 0.012987012974917889 0.7272727489471436
vt 0 0.7272727489471436
vt 0.012987012974917889 0.27272728085517883
vt 0.37662336230278015 0.1818181872367859
vt 0.6103895902633667 0.20454545319080353
vt 0.37662336230278015 0.20454545319080353
vt 0.6103895902633667 0.1818181872367859
vt 0.6753246784210205 0.6818181872367859
vt 0.7662337422370911 0.7045454382896423
vt 0.6753246784210205 0.7045454382896423
vt 0.7662337422370911 0.6818181872367859
vt 0 0.2954545319080353
vt 0.012987012974917889 0.7045454382896423
vt 0 0.7045454382896423
vt 0.012987012974917889 0.2954545319080353
vt 0.37662336230278015 0.13636364042758942
vt 0.6103895902633667 0.15909090638160706
vt 0.37662336230278015 0.15909090638160706
vt 0.6103895902633667 0.13636364042758942
vt 0.37662336230278015 0.8409090638160706
vt 0.3896103799343109 0.8636363744735718
vt 0.37662336230278015 0.8636363744735718
vt 0.3896103799343109 0.8409090638160706
vt 0.6883116960525513 0.6818181872367859
vt 0.7532467246055603 0.7045454382896423
vt 0.6883116960525513 0.7045454382896423
vt 0.7532467246055603 0.6818181872367859
vt 0.7922077775001526 0.2954545319080353
vt 0.8051947951316833 0.3181818127632141
vt 0.7922077775001526 0.3181818127632141
vt 0.8051947951316833 0.2954545319080353
vt 0.41558441519737244 0.8409090638160706
vt 0.4285714328289032 0.8636363744735718
vt 0.41558441519737244 0.8636363744735718
vt 0.4285714328289032 0.8409090638160706
vt 0.4025973975658417 0.8636363744735718
vt 0.4025973975658417 0.8409090638160706
vt 0.025974025949835777 0.27272728085517883
vt 0.03896103799343109 0.7272727489471436
vt 0.025974025949835777 0.7272727489471436
vt 0.03896103799343109 0.27272728085517883
vt 0.051948051899671555 0.7272727489471436
vt 0.051948051899671555 0.27272728085517883
vt 0.06493506580591202 0.7272727489471436
vt 0.06493506580591202 0.27272728085517883
vt 0.07792207598686218 0.7272727489471436
vt 0.07792207598686218 0.27272728085517883
vt 0.09090909361839294 0.7272727489471436
vt 0.09090909361839294 0.27272728085517883
vt 0.10389610379934311 0.7272727489471436
vt 0.10389610379934311 0.27272728085517883
vt 0.11688312143087387 0.7272727489471436
vt 0.11688312143087387 0.27272728085517883
vt 0.12987013161182404 0.7272727489471436
vt 0.12987013161182404 0.27272728085517883
vt 0.1428571492433548 0.7272727489471436
vt 0.1428571492433548 0.27272728085517883
vt 0.15584415197372437 0.7272727489471436
vt 0.15584415197372437 0.27272728085517883
vt 0.16883116960525513 0.7272727489471436
vt 0.16883116960525513 0.27272728085517883
vt 0.1818181872367859 0.7272727489471436
vt 0.1818181872367859 0.27272728085517883
vt 0.19480518996715546 0.7272727489471436
vt 0.19480518996715546 0.27272728085517883
vt 0.20779220759868622 0.7272727489471436
vt 0.20779220759868622 0.27272728085517883
vt 0.22077922523021698 0.7272727489471436
vt 0.22077922523021698 0.27272728085517883
vt 0.23376624286174774 0.7272727489471436
vt 0.23376624286174774 0.27272728085517883
vt 0.2467532455921173 0.7272727489471436
vt 0.2467532455921173 0.27272728085517883
vt 0.25974026322364807 0.7272727489471436
vt 0.25974026322364807 0.27272728085517883
vt 0.37662336230278015 0.27272728085517883
vt 0.3896103799343109 0.7272727489471436
vt 0.37662336230278015 0.7272727489471436
vt 0.3896103799343109 0.27272728085517883
vt 0.4025973975658417 0.7272727489471436
vt 0.4025973975658417 0.27272728085517883
vt 0.41558438539505005 0.7272727489471436
vt 0.41558438539505005 0.27272728085517883
vt 0.4285714030265808 0.7272727489471436
vt 0.4285714030265808 0.27272728085517883
vt 0.4415584206581116 0.7272727489471436
vt 0.4415584206581116 0.27272728085517883
vt 0.45454543828964233 0.7272727489471436
vt 0.45454543828964233 0.27272728085517883
vt 0.4675324559211731 0.7272727489471436
vt 0.4675324559211731 0.27272728085517883
vt 0.48051947355270386 0.7272727489471436
vt 0.48051947355270386 0.27272728085517883
vt 0.4935064911842346 0.7272727489471436
vt 0.4935064911842346 0.27272728085517883
vt 0.5064935088157654 0.7272727489471436
vt 0.5064935088157654 0.27272728085517883
vt 0.5194805264472961 0.7272727489471436
vt 0.5194805264472961 0.27272728085517883
vt 0.5324674844741821 0.7272727489471436
vt 0.5324674844741821 0.27272728085517883
vt 0.5454545021057129 0.7272727489471436
vt 0.5454545021057129 0.27272728085517883
vt 0.5584415197372437 0.7272727489471436
vt 0.5584415197372437 0.27272728085517883
vt 0.5714285373687744 0.7272727489471436
vt 0.5714285373687744 0.27272728085517883
vt 0.025974025949835777 0.22727273404598236
vt 0.03896103799343109 0.25
vt 0.025974025949835777 0.25
vt 0.03896103799343109 0.22727273404598236
vt 0.051948051899671555 0.25
vt 0.051948051899671555 0.22727273404598236
vt 0.06493506580591202 0.25
vt 0.06493506580591202 0.22727273404598236
vt 0.07792207598686218 0.25
vt 0.07792207598686218 0.22727273404598236
vt 0.09090909361839294 0.25
vt 0.09090909361839294 0.22727273404598236
vt 0.10389610379934311 0.25
vt 0.10389610379934311 0.22727273404598236
vt 0.11688312143087387 0.25
vt 0.11688312143087387 0.22727273404598236
vt 0.12987013161182404 0.25
vt 0.12987013161182404 0.22727273404598236
vt 0.1428571492433548 0.25
vt 0.1428571492433548 0.22727273404598236
vt 0.15584415197372437 0.25
vt 0.15584415197372437 0.22727273404598236
vt 0.16883116960525513 0.25
vt 0.16883116960525513 0.22727273404598236
vt 0.1818181872367859 0.25
vt 0.1818181872367859 0.22727273404598236
vt 0.19480518996715546 0.25
vt 0.19480518996715546 0.22727273404598236
vt 0.20779220759868622 0.25
vt 0.20779220759868622 0.22727273404598236
vt 0.22077922523021698 0.25
vt 0.22077922523021698 0.22727273404598236
vt 0.23376624286174774 0.25
vt 0.23376624286174774 0.22727273404598236
vt 0.2467532455921173 0.25
vt 0.2467532455921173 0.22727273404598236
vt 0.25974026322364807 0.25
vt 0.25974026322364807 0.22727273404598236
vt 0.37662336230278015 0.22727273404598236
vt 0.3896103799343109 0.25
vt 0.37662336230278015 0.25
vt 0.3896103799343109 0.22727273404598236
vt 0.4025973975658417 0.25
vt 0.4025973975658417 0.22727273404598236
vt 0.41558438539505005 0.25
vt 0.41558438539505005 0.22727273404598236
vt 0.4285714030265808 0.25
vt 0.4285714030265808 0.22727273404598236
vt 0.4415584206581116 0.25
vt 0.4415584206581116 0.22727273404598236
vt 0.45454543828964233 0.25
vt 0.45454543828964233 0.22727273404598236
vt 0.4675324559211731 0.25
vt 0.4675324559211731 0.22727273404598236
vt 0.48051947355270386 0.25
vt 0.48051947355270386 0.22727273404598236
vt 0.4935064911842346 0.25
vt 0.4935064911842346 0.22727273404598236
vt 0.5064935088157654 0.25
vt 0.5064935088157654 0.22727273404598236
vt 0.5194805264472961 0.25
vt 0.5194805264472961 0.22727273404598236
vt 0.5324674844741821 0.25
vt 0.5324674844741821 0.22727273404598236
vt 0.5454545021057129 0.25
vt 0.5454545021057129 0.22727273404598236
vt 0.5584415197372437 0.25
vt 0.5584415197372437 0.22727273404598236
vt 0.5714285373687744 0.25
vt 0.5714285373687744 0.22727273404598236
vt 0.5844155550003052 0.25
vt 0.5844155550003052 0.22727273404598236
vt 0.5974025726318359 0.25
vt 0.5974025726318359 0.22727273404598236
vt 0.6103895902633667 0.25
vt 0.6103895902633667 0.22727273404598236
vt 0.025974025949835777 0.75
vt 0.03896103799343109 0.7727272510528564
vt 0.025974025949835777 0.7727272510528564
vt 0.03896103799343109 0.75
vt 0.051948051899671555 0.7727272510528564
vt 0.051948051899671555 0.75
vt 0.06493506580591202 0.7727272510528564
vt 0.06493506580591202 0.75
vt 0.07792207598686218 0.7727272510528564
vt 0.07792207598686218 0.75
vt 0.09090909361839294 0.7727272510528564
vt 0.09090909361839294 0.75
vt 0.10389610379934311 0.7727272510528564
vt 0.10389610379934311 0.75
vt 0.11688312143087387 0.7727272510528564
vt 0.11688312143087387 0.75
vt 0.12987013161182404 0.7727272510528564
vt 0.12987013161182404 0.75
vt 0.1428571492433548 0.7727272510528564
vt 0.1428571492433548 0.75
vt 0.15584415197372437 0.7727272510528564
vt 0.15584415197372437 0.75
vt 0.16883116960525513 0.7727272510528564
vt 0.16883116960525513 0.75
vt 0.1818181872367859 0.7727272510528564
vt 0.1818181872367859 0.75
vt 0.19480518996715546 0.7727272510528564
vt 0.19480518996715546 0.75
vt 0.20779220759868622 0.7727272510528564
vt 0.20779220759868622 0.75
vt 0.22077922523021698 0.7727272510528564
vt 0.22077922523021698 0.75
vt 0.23376624286174774 0.7727272510528564
vt 0.23376624286174774 0.75
vt 0.2467532455921173 0.7727272510528564
vt 0.2467532455921173 0.75
vt 0.25974026322364807 0.7727272510528564
vt 0.25974026322364807 0.75
vt 0.37662336230278015 0.75
vt 0.3896103799343109 0.7727272510528564
vt 0.37662336230278015 0.7727272510528564
vt 0.3896103799343109 0.75
vt 0.4025973975658417 0.7727272510528564
vt 0.4025973975658417 0.75
vt 0.41558438539505005 0.7727272510528564
vt 0.41558438539505005 0.75
vt 0.4285714030265808 0.7727272510528564
vt 0.4285714030265808 0.75
vt 0.4415584206581116 0.7727272510528564
vt 0.4415584206581116 0.75
vt 0.45454543828964233 0.7727272510528564
vt 0.45454543828964233 0.75
vt 0.4675324559211731 0.7727272510528564
vt 0.4675324559211731 0.75
vt 0.48051947355270386 0.7727272510528564
vt 0.48051947355270386 0.75
vt 0.4935064911842346 0.7727272510528564
vt 0.4935064911842346 0.75
vt 0.5064935088157654 0.7727272510528564
vt 0.5064935088157654 0.75
vt 0.5194805264472961 0.7727272510528564
vt 0.5194805264472961 0.75
vt 0.5324674844741821 0.7727272510528564
vt 0.5324674844741821 0.75
vt 0.5454545021057129 0.7727272510528564
vt 0.5454545021057129 0.75
vn 0 -1 0
vn 0 0 -1
vn 0 0 1
vn 1 0 0
vn -1 0 0
vn 0 1 0
vn 0 0 0
vn -0.18428854 0.98287219 0
vn 0.5547002 0.83205029 0
vn 0.8 0.6 0
vn -0.8 0.6 0
vn -0.5547002 0.83205029 0
vn 0.70710678 -0.70710678 0
vn -0.70710678 -0.70710678 0
vn 0.18428854 0.98287219 0
g Object 1332
usemtl open book texture
f 1/1/1 3/2/1 2/3/1
f 1/1/1 4/4/1 3/2/1
f 5/5/1 6/6/1 7/7/1
f 5/5/1 8/8/1 6/6/1
f 9/4/1 10/9/1 11/2/1
f 9/4/1 12/10/1 10/9/1
f 13/11/2 14/12/2 15/13/2
f 13/11/2 16/14/2 14/12/2
f 17/15/3 18/16/3 19/17/3
f 17/15/3 20/18/3 18/16/3
f 21/14/2 22/19/2 23/12/2
f 21/14/2 24/20/2 22/19/2
f 25/21/4 26/22/4 27/23/4
f 25/21/4 28/24/4 26/22/4
f 29/20/2 30/25/2 31/19/2
f 29/20/2 32/26/2 30/25/2
f 33/27/2 34/28/2 35/29/2
f 33/27/2 36/30/2 34/28/2
f 37/26/2 38/31/2 39/25/2
f 37/26/2 40/32/2 38/31/2
f 41/33/5 42/34/5 43/35/5
f 41/33/5 44/36/5 42/34/5
f 45/37/6 46/38/6 47/39/6
f 45/37/6 48/40/6 46/38/6
f 49/41/2 50/42/2 51/43/2
f 49/41/2 52/44/2 50/42/2
f 53/15/6 54/16/6 55/17/6
f 53/15/6 56/18/6 54/16/6
f 57/37/6 58/38/6 59/39/6
f 57/37/6 60/40/6 58/38/6
f 61/37/6 62/38/6 63/39/6
f 61/37/6 64/40/6 62/38/6
f 65/15/6 66/16/6 67/17/6
f 65/15/6 68/18/6 66/16/6
f 69/37/6 70/38/6 71/39/6
f 69/37/6 72/40/6 70/38/6
f 73/45/6 74/46/6 75/47/6
f 73/45/6 76/48/6 74/46/6
f 77/49/3 78/50/3 79/51/3
f 77/49/3 80/52/3 78/50/3
f 81/49/5 82/50/5 83/51/5
f 81/49/5 84/52/5 82/50/5
f 85/53/2 86/54/2 87/55/2
f 85/53/7 88/56/7 86/54/7
f 89/37/6 90/38/6 91/39/6
f 89/37/6 92/40/6 90/38/6
f 93/49/3 94/50/3 95/51/3
f 93/49/3 96/52/3 94/50/3
f 97/49/4 98/50/4 99/51/4
f 97/49/4 100/52/4 98/50/4
f 101/49/2 102/50/2 103/51/2
f 101/49/2 104/52/2 102/50/2
f 105/57/3 106/58/3 107/59/3
f 105/57/3 108/60/3 106/58/3
f 109/49/2 110/50/2 111/51/2
f 109/49/2 112/52/2 110/50/2
f 113/61/8 114/62/8 115/63/8
f 113/61/8 116/64/8 114/62/8
f 117/65/6 118/66/6 119/67/6
f 117/65/6 120/68/6 118/66/6
f 121/65/6 122/66/6 123/67/6
f 121/65/6 124/68/6 122/66/6
f 125/53/9 126/54/9 127/55/9
f 125/53/9 128/56/9 126/54/9
f 129/56/10 130/69/10 131/54/10
f 129/56/10 132/70/10 130/69/10
f 133/56/11 134/69/11 135/54/11
f 133/56/11 136/70/11 134/69/11
f 137/53/12 138/54/12 139/55/12
f 137/53/12 140/56/12 138/54/12
f 141/71/1 142/72/1 143/73/1
f 141/71/1 144/74/1 142/72/1
f 145/74/1 146/75/1 147/72/1
f 145/74/1 148/76/1 146/75/1
f 149/76/1 150/77/1 151/75/1
f 149/76/1 152/78/1 150/77/1
f 153/78/1 154/79/1 155/77/1
f 153/78/1 156/80/1 154/79/1
f 157/80/1 158/81/1 159/79/1
f 157/80/1 160/82/1 158/81/1
f 161/82/1 162/83/1 163/81/1
f 161/82/1 164/84/1 162/83/1
f 165/84/1 166/85/1 167/83/1
f 165/84/1 168/86/1 166/85/1
f 169/86/1 170/87/1 171/85/1
f 169/86/1 172/88/1 170/87/1
f 173/88/1 174/89/1 175/87/1
f 173/88/1 176/90/1 174/89/1
f 177/90/1 178/91/1 179/89/1
f 177/90/1 180/92/1 178/91/1
f 181/92/1 182/93/1 183/91/1
f 181/92/1 184/94/1 182/93/1
f 185/94/1 186/95/1 187/93/1
f 185/94/1 188/96/1 186/95/1
f 189/96/1 190/97/1 191/95/1
f 189/96/1 192/98/1 190/97/1
f 193/98/1 194/99/1 195/97/1
f 193/98/1 196/100/1 194/99/1
f 197/100/1 198/101/1 199/99/1
f 197/100/1 200/102/1 198/101/1
f 201/102/13 202/103/13 203/101/13
f 201/102/13 204/104/13 202/103/13
f 205/104/14 206/105/14 207/103/14
f 205/104/14 208/106/14 206/105/14
f 209/106/1 210/107/1 211/105/1
f 209/106/1 212/108/1 210/107/1
f 213/109/1 214/110/1 215/111/1
f 213/109/1 216/112/1 214/110/1
f 217/112/13 218/113/13 219/110/13
f 217/112/13 220/114/13 218/113/13
f 221/114/14 222/115/14 223/113/14
f 221/114/14 224/116/14 222/115/14
f 225/116/1 226/117/1 227/115/1
f 225/116/1 228/118/1 226/117/1
f 229/118/1 230/119/1 231/117/1
f 229/118/1 232/120/1 230/119/1
f 233/120/1 234/121/1 235/119/1
f 233/120/1 236/122/1 234/121/1
f 237/122/1 238/123/1 239/121/1
f 237/122/1 240/124/1 238/123/1
f 241/124/1 242/125/1 243/123/1
f 241/124/1 244/126/1 242/125/1
f 245/126/1 246/127/1 247/125/1
f 245/126/1 248/128/1 246/127/1
f 249/128/1 250/129/1 251/127/1
f 249/128/1 252/130/1 250/129/1
f 253/130/1 254/131/1 255/129/1
f 253/130/1 256/132/1 254/131/1
f 257/132/1 258/133/1 259/131/1
f 257/132/1 260/134/1 258/133/1
f 261/134/1 262/135/1 263/133/1
f 261/134/1 264/136/1 262/135/1
f 265/136/1 266/137/1 267/135/1
f 265/136/1 268/138/1 266/137/1
f 269/138/1 270/139/1 271/137/1
f 269/138/1 272/140/1 270/139/1
f 273/140/1 274/3/1 275/139/1
f 273/140/1 276/1/1 274/3/1
f 277/141/3 278/142/3 279/143/3
f 277/141/3 280/144/3 278/142/3
f 281/144/3 282/145/3 283/142/3
f 281/144/3 284/146/3 282/145/3
f 285/146/3 286/147/3 287/145/3
f 285/146/3 288/148/3 286/147/3
f 289/148/3 290/149/3 291/147/3
f 289/148/3 292/150/3 290/149/3
f 293/150/3 294/151/3 295/149/3
f 293/150/3 296/152/3 294/151/3
f 297/152/3 298/153/3 299/151/3
f 297/152/3 300/154/3 298/153/3
f 301/154/3 302/155/3 303/153/3
f 301/154/3 304/156/3 302/155/3
f 305/156/3 306/157/3 307/155/3
f 305/156/3 308/158/3 306/157/3
f 309/158/3 310/159/3 311/157/3
f 309/158/3 312/160/3 310/159/3
f 313/160/3 314/161/3 315/159/3
f 313/160/3 316/162/3 314/161/3
f 317/162/3 318/163/3 319/161/3
f 317/162/3 320/164/3 318/163/3
f 321/164/3 322/165/3 323/163/3
f 321/164/3 324/166/3 322/165/3
f 325/166/3 326/167/3 327/165/3
f 325/166/3 328/168/3 326/167/3
f 329/168/3 330/169/3 331/167/3
f 329/168/3 332/170/3 330/169/3
f 333/170/3 334/171/3 335/169/3
f 333/170/3 336/172/3 334/171/3
f 337/172/3 338/173/3 339/171/3
f 337/172/3 340/174/3 338/173/3
f 341/174/3 342/175/3 343/173/3
f 341/174/3 344/176/3 342/175/3
f 345/176/3 346/177/3 347/175/3
f 345/176/3 348/178/3 346/177/3
f 349/179/3 350/180/3 351/181/3
f 349/179/3 352/182/3 350/180/3
f 353/182/3 354/183/3 355/180/3
f 353/182/3 356/184/3 354/183/3
f 357/184/3 358/185/3 359/183/3
f 357/184/3 360/186/3 358/185/3
f 361/186/3 362/187/3 363/185/3
f 361/186/3 364/188/3 362/187/3
f 365/188/3 366/189/3 367/187/3
f 365/188/3 368/190/3 366/189/3
f 369/190/3 370/191/3 371/189/3
f 369/190/3 372/192/3 370/191/3
f 373/192/3 374/193/3 375/191/3
f 373/192/3 376/194/3 374/193/3
f 377/194/3 378/195/3 379/193/3
f 377/194/3 380/196/3 378/195/3
f 381/196/3 382/197/3 383/195/3
f 381/196/3 384/198/3 382/197/3
f 385/198/3 386/199/3 387/197/3
f 385/198/3 388/200/3 386/199/3
f 389/200/3 390/201/3 391/199/3
f 389/200/3 392/202/3 390/201/3
f 393/202/3 394/203/3 395/201/3
f 393/202/3 396/204/3 394/203/3
f 397/204/3 398/205/3 399/203/3
f 397/204/3 400/206/3 398/205/3
f 401/206/3 402/207/3 403/205/3
f 401/206/3 404/208/3 402/207/3
f 405/208/3 406/209/3 407/207/3
f 405/208/3 408/210/3 406/209/3
f 409/210/3 410/211/3 411/209/3
f 409/210/3 412/212/3 410/211/3
f 413/212/3 414/213/3 415/211/3
f 413/212/3 416/214/3 414/213/3
f 417/214/3 418/215/3 419/213/3
f 417/214/3 420/216/3 418/215/3
f 421/217/2 422/218/2 423/219/2
f 421/217/2 424/220/2 422/218/2
f 425/220/2 426/221/2 427/218/2
f 425/220/2 428/222/2 426/221/2
f 429/222/2 430/223/2 431/221/2
f 429/222/2 432/224/2 430/223/2
f 433/224/2 434/225/2 435/223/2
f 433/224/2 436/226/2 434/225/2
f 437/226/2 438/227/2 439/225/2
f 437/226/2 440/228/2 438/227/2
f 441/228/2 442/229/2 443/227/2
f 441/228/2 444/230/2 442/229/2
f 445/230/2 446/231/2 447/229/2
f 445/230/2 448/232/2 446/231/2
f 449/232/2 450/233/2 451/231/2
f 449/232/2 452/234/2 450/233/2
f 453/234/2 454/235/2 455/233/2
f 453/234/2 456/236/2 454/235/2
f 457/236/2 458/237/2 459/235/2
f 457/236/2 460/238/2 458/237/2
f 461/238/2 462/239/2 463/237/2
f 461/238/2 464/240/2 462/239/2
f 465/240/2 466/241/2 467/239/2
f 465/240/2 468/242/2 466/241/2
f 469/242/2 470/243/2 471/241/2
f 469/242/2 472/244/2 470/243/2
f 473/244/2 474/245/2 475/243/2
f 473/244/2 476/246/2 474/245/2
f 477/246/2 478/247/2 479/245/2
f 477/246/2 480/248/2 478/247/2
f 481/248/2 482/249/2 483/247/2
f 481/248/2 484/250/2 482/249/2
f 485/250/2 486/251/2 487/249/2
f 485/250/2 488/252/2 486/251/2
f 489/252/2 490/253/2 491/251/2
f 489/252/2 492/254/2 490/253/2
f 493/255/2 494/256/2 495/257/2
f 493/255/2 496/258/2 494/256/2
f 497/258/2 498/259/2 499/256/2
f 497/258/2 500/260/2 498/259/2
f 501/260/2 502/261/2 503/259/2
f 501/260/2 504/262/2 502/261/2
f 505/262/2 506/263/2 507/261/2
f 505/262/2 508/264/2 506/263/2
f 509/264/2 510/265/2 511/263/2
f 509/264/2 512/266/2 510/265/2
f 513/266/2 514/267/2 515/265/2
f 513/266/2 516/268/2 514/267/2
f 517/268/2 518/269/2 519/267/2
f 517/268/2 520/270/2 518/269/2
f 521/270/2 522/271/2 523/269/2
f 521/270/2 524/272/2 522/271/2
f 525/272/2 526/273/2 527/271/2
f 525/272/2 528/274/2 526/273/2
f 529/274/2 530/275/2 531/273/2
f 529/274/2 532/276/2 530/275/2
f 533/276/2 534/277/2 535/275/2
f 533/276/2 536/278/2 534/277/2
f 537/278/2 538/279/2 539/277/2
f 537/278/2 540/280/2 538/279/2
f 541/280/2 542/281/2 543/279/2
f 541/280/2 544/282/2 542/281/2
f 545/282/2 546/13/2 547/281/2
f 545/282/2 548/11/2 546/13/2
f 549/53/3 550/54/3 551/55/3
f 549/53/3 552/56/3 550/54/3
f 553/53/3 554/54/3 555/55/3
f 553/53/3 556/56/3 554/54/3
f 557/53/2 558/54/2 559/55/2
f 557/53/2 560/56/2 558/54/2
f 561/53/2 562/54/2 563/55/2
f 561/53/2 564/56/2 562/54/2
f 565/53/3 566/54/3 567/55/3
f 565/53/3 568/56/3 566/54/3
f 569/53/3 570/54/3 571/55/3
f 569/53/3 572/56/3 570/54/3
f 573/53/2 574/54/2 575/55/2
f 573/53/2 576/56/2 574/54/2
f 577/53/2 578/54/2 579/55/2
f 577/53/2 580/56/2 578/54/2
f 581/53/3 582/54/3 583/55/3
f 581/53/3 584/56/3 582/54/3
f 585/53/3 586/54/3 587/55/3
f 585/53/7 588/56/7 586/54/7
f 589/53/2 590/54/2 591/55/2
f 589/53/2 592/56/2 590/54/2
f 593/61/15 594/62/15 595/63/15
f 593/61/15 596/64/15 594/62/15
