mtllib material.mtl
o Default
v 0 0 0
v 0 0 -0.6875
v 8.75 0 -0.6875
v 8.75 0 0
v 0 -1 -0.6875
v 0 0 0
v 0 0 -0.6875
v 0 -1 0
v 0 -2 -0.6875
v 0 -1 0
v 0 -1 -0.6875
v 0 -2 0
v 0 -3 -0.6875
v 0 -2 0
v 0 -2 -0.6875
v 0 -3 0
v 0 -4 -0.6875
v 0 -3 0
v 0 -3 -0.6875
v 0 -4 0
v 0 -5 -0.6875
v 0 -4 0
v 0 -4 -0.6875
v 0 -5 0
v 0 -6 -0.6875
v 0 -5 0
v 0 -5 -0.6875
v 0 -6 0
v 0 -7 -0.6875
v 0 -6 0
v 0 -6 -0.6875
v 0 -7 0
v 0 -8 -0.6875
v 0 -7 0
v 0 -7 -0.6875
v 0 -8 0
v 0 -9 -0.6875
v 0 -8 0
v 0 -8 -0.6875
v 0 -9 0
v 0 -10 -0.6875
v 0 -9 0
v 0 -9 -0.6875
v 0 -10 0
v 0 -11 -0.6875
v 0 -10 0
v 0 -10 -0.6875
v 0 -11 0
v 0 -12 -0.6875
v 0 -11 0
v 0 -11 -0.6875
v 0 -12 0
v 0 -13 -0.6875
v 0 -12 0
v 0 -12 -0.6875
v 0 -13 0
v 0 -14 -0.6875
v 0 -13 0
v 0 -13 -0.6875
v 0 -14 0
v 0 -15 -0.6875
v 0 -14 0
v 0 -14 -0.6875
v 0 -15 0
v 0 -16 -0.6875
v 0 -15 0
v 0 -15 -0.6875
v 0 -16 0
v 0 -17 -0.6875
v 0 -16 0
v 0 -16 -0.6875
v 0 -17 0
v 0 -18 -0.6875
v 0 -17 0
v 0 -17 -0.6875
v 0 -18 0
v 0 -19 -0.6875
v 0 -18 0
v 0 -18 -0.6875
v 0 -19 0
v 0 -20 -0.6875
v 0 -19 0
v 0 -19 -0.6875
v 0 -20 0
v 0 -21 -0.6875
v 0 -20 0
v 0 -20 -0.6875
v 0 -21 0
v 0 -22 -0.6875
v 0 -21 0
v 0 -21 -0.6875
v 0 -22 0
v 0 -23 -0.6875
v 0 -22 0
v 0 -22 -0.6875
v 0 -23 0
v 0 -24 -0.6875
v 0 -23 0
v 0 -23 -0.6875
v 0 -24 0
v 0 -25 -0.6875
v 0 -24 0
v 0 -24 -0.6875
v 0 -25 0
v 0 -25 0
v 8.75 0 0
v 0 0 0
v 8.75 -25 0
vt 0 0.9725000262260437
vt 1 1
vt 0 1
vt 1 0.9725000262260437
vt 0.7714285850524902 0.9599999785423279
vt 0.8500000238418579 1
vt 0.7714285850524902 1
vt 0.8500000238418579 0.9599999785423279
vt 0 0
vt 1 0
vn 0 1 0
vn -1 0 0
vn 0 0 1
g Object 66056
usemtl Wall2
f 1/1/1 3/2/1 2/3/1
f 1/1/1 4/4/1 3/2/1
f 5/5/2 6/6/2 7/7/2
f 5/5/2 8/8/2 6/6/2
f 9/5/2 10/6/2 11/7/2
f 9/5/2 12/8/2 10/6/2
f 13/5/2 14/6/2 15/7/2
f 13/5/2 16/8/2 14/6/2
f 17/5/2 18/6/2 19/7/2
f 17/5/2 20/8/2 18/6/2
f 21/5/2 22/6/2 23/7/2
f 21/5/2 24/8/2 22/6/2
f 25/5/2 26/6/2 27/7/2
f 25/5/2 28/8/2 26/6/2
f 29/5/2 30/6/2 31/7/2
f 29/5/2 32/8/2 30/6/2
f 33/5/2 34/6/2 35/7/2
f 33/5/2 36/8/2 34/6/2
f 37/5/2 38/6/2 39/7/2
f 37/5/2 40/8/2 38/6/2
f 41/5/2 42/6/2 43/7/2
f 41/5/2 44/8/2 42/6/2
f 45/5/2 46/6/2 47/7/2
f 45/5/2 48/8/2 46/6/2
f 49/5/2 50/6/2 51/7/2
f 49/5/2 52/8/2 50/6/2
f 53/5/2 54/6/2 55/7/2
f 53/5/2 56/8/2 54/6/2
f 57/5/2 58/6/2 59/7/2
f 57/5/2 60/8/2 58/6/2
f 61/5/2 62/6/2 63/7/2
f 61/5/2 64/8/2 62/6/2
f 65/5/2 66/6/2 67/7/2
f 65/5/2 68/8/2 66/6/2
f 69/5/2 70/6/2 71/7/2
f 69/5/2 72/8/2 70/6/2
f 73/5/2 74/6/2 75/7/2
f 73/5/2 76/8/2 74/6/2
f 77/5/2 78/6/2 79/7/2
f 77/5/2 80/8/2 78/6/2
f 81/5/2 82/6/2 83/7/2
f 81/5/2 84/8/2 82/6/2
f 85/5/2 86/6/2 87/7/2
f 85/5/2 88/8/2 86/6/2
f 89/5/2 90/6/2 91/7/2
f 89/5/2 92/8/2 90/6/2
f 93/5/2 94/6/2 95/7/2
f 93/5/2 96/8/2 94/6/2
f 97/5/2 98/6/2 99/7/2
f 97/5/2 100/8/2 98/6/2
f 101/5/2 102/6/2 103/7/2
f 101/5/2 104/8/2 102/6/2
usemtl Walls
f 105/9/3 106/2/3 107/3/3
f 105/9/3 108/10/3 106/2/3
