mtllib material.mtl
o Default
v -23.75 0 25
v -23.75 0 0
v 0 0 0
v 0 0 25
v -23.75 -1.0625 25
v 0 0 25
v -23.75 0 25
v 0 -1.0625 25
v 0 -1.0625 0
v -23.75 0 0
v 0 0 0
v -23.75 -1.0625 0
v -23.75 -1.0625 24
v -23.75 0 25
v -23.75 0 24
v -23.75 -1.0625 25
v -23.75 -1.0625 23
v -23.75 0 24
v -23.75 0 23
v -23.75 -1.0625 24
v -23.75 -1.0625 22
v -23.75 0 23
v -23.75 0 22
v -23.75 -1.0625 23
v -23.75 -1.0625 21
v -23.75 0 22
v -23.75 0 21
v -23.75 -1.0625 22
v -23.75 -1.0625 20
v -23.75 0 21
v -23.75 0 20
v -23.75 -1.0625 21
v -23.75 -1.0625 19
v -23.75 0 20
v -23.75 0 19
v -23.75 -1.0625 20
v -23.75 -1.0625 18
v -23.75 0 19
v -23.75 0 18
v -23.75 -1.0625 19
v -23.75 -1.0625 17
v -23.75 0 18
v -23.75 0 17
v -23.75 -1.0625 18
v -23.75 -1.0625 16
v -23.75 0 17
v -23.75 0 16
v -23.75 -1.0625 17
v -23.75 -1.0625 15
v -23.75 0 16
v -23.75 0 15
v -23.75 -1.0625 16
v -23.75 -1.0625 14
v -23.75 0 15
v -23.75 0 14
v -23.75 -1.0625 15
v -23.75 -1.0625 13
v -23.75 0 14
v -23.75 0 13
v -23.75 -1.0625 14
v -23.75 -1.0625 12
v -23.75 0 13
v -23.75 0 12
v -23.75 -1.0625 13
v -23.75 -1.0625 11
v -23.75 0 12
v -23.75 0 11
v -23.75 -1.0625 12
v -23.75 -1.0625 10
v -23.75 0 11
v -23.75 0 10
v -23.75 -1.0625 11
v -23.75 -1.0625 9
v -23.75 0 10
v -23.75 0 9
v -23.75 -1.0625 10
v -23.75 -1.0625 8
v -23.75 0 9
v -23.75 0 8
v -23.75 -1.0625 9
v -23.75 -1.0625 7
v -23.75 0 8
v -23.75 0 7
v -23.75 -1.0625 8
v -23.75 -1.0625 6
v -23.75 0 7
v -23.75 0 6
v -23.75 -1.0625 7
v -23.75 -1.0625 5
v -23.75 0 6
v -23.75 0 5
v -23.75 -1.0625 6
v -23.75 -1.0625 4
v -23.75 0 5
v -23.75 0 4
v -23.75 -1.0625 5
v -23.75 -1.0625 3
v -23.75 0 4
v -23.75 0 3
v -23.75 -1.0625 4
v -23.75 -1.0625 2
v -23.75 0 3
v -23.75 0 2
v -23.75 -1.0625 3
v -23.75 -1.0625 1
v -23.75 0 2
v -23.75 0 1
v -23.75 -1.0625 2
v -23.75 -1.0625 0
v -23.75 0 1
v -23.75 0 0
v -23.75 -1.0625 1
v 0 -1.0625 1
v 0 0 0
v 0 0 1
v 0 -1.0625 0
v 0 -1.0625 2
v 0 0 1
v 0 0 2
v 0 -1.0625 1
v 0 -1.0625 3
v 0 0 2
v 0 0 3
v 0 -1.0625 2
v 0 -1.0625 4
v 0 0 3
v 0 0 4
v 0 -1.0625 3
v 0 -1.0625 5
v 0 0 4
v 0 0 5
v 0 -1.0625 4
v 0 -1.0625 6
v 0 0 5
v 0 0 6
v 0 -1.0625 5
v 0 -1.0625 7
v 0 0 6
v 0 0 7
v 0 -1.0625 6
v 0 -1.0625 8
v 0 0 7
v 0 0 8
v 0 -1.0625 7
v 0 -1.0625 9
v 0 0 8
v 0 0 9
v 0 -1.0625 8
v 0 -1.0625 10
v 0 0 9
v 0 0 10
v 0 -1.0625 9
v 0 -1.0625 11
v 0 0 10
v 0 0 11
v 0 -1.0625 10
v 0 -1.0625 12
v 0 0 11
v 0 0 12
v 0 -1.0625 11
v 0 -1.0625 13
v 0 0 12
v 0 0 13
v 0 -1.0625 12
v 0 -1.0625 14
v 0 0 13
v 0 0 14
v 0 -1.0625 13
v 0 -1.0625 15
v 0 0 14
v 0 0 15
v 0 -1.0625 14
v 0 -1.0625 16
v 0 0 15
v 0 0 16
v 0 -1.0625 15
v 0 -1.0625 17
v 0 0 16
v 0 0 17
v 0 -1.0625 16
v 0 -1.0625 18
v 0 0 17
v 0 0 18
v 0 -1.0625 17
v 0 -1.0625 19
v 0 0 18
v 0 0 19
v 0 -1.0625 18
v 0 -1.0625 20
v 0 0 19
v 0 0 20
v 0 -1.0625 19
v 0 -1.0625 21
v 0 0 20
v 0 0 21
v 0 -1.0625 20
v 0 -1.0625 22
v 0 0 21
v 0 0 22
v 0 -1.0625 21
v 0 -1.0625 23
v 0 0 22
v 0 0 23
v 0 -1.0625 22
v 0 -1.0625 24
v 0 0 23
v 0 0 24
v 0 -1.0625 23
v 0 -1.0625 25
v 0 0 24
v 0 0 25
v 0 -1.0625 24
vt 0 0
vt 1 1
vt 0 1
vt 1 0
vt 1 0.042500000447034836
vt 0 0.042500000447034836
vt 0.9263157844543457 0.9200000166893005
vt 0.9684210419654846 0.9624999761581421
vt 0.9263157844543457 0.9624999761581421
vt 0.9684210419654846 0.9200000166893005
vn 0 1 0
vn 0 0 1
vn 0 0 -1
vn -1 0 0
vn 1 0 0
g Object 513
usemtl Floor
f 1/1/1 3/2/1 2/3/1
f 1/1/1 4/4/1 3/2/1
f 5/1/2 6/5/2 7/6/2
f 5/1/2 8/4/2 6/5/2
f 9/1/3 10/5/3 11/6/3
f 9/1/3 12/4/3 10/5/3
f 13/7/4 14/8/4 15/9/4
f 13/7/4 16/10/4 14/8/4
f 17/7/4 18/8/4 19/9/4
f 17/7/4 20/10/4 18/8/4
f 21/7/4 22/8/4 23/9/4
f 21/7/4 24/10/4 22/8/4
f 25/7/4 26/8/4 27/9/4
f 25/7/4 28/10/4 26/8/4
f 29/7/4 30/8/4 31/9/4
f 29/7/4 32/10/4 30/8/4
f 33/7/4 34/8/4 35/9/4
f 33/7/4 36/10/4 34/8/4
f 37/7/4 38/8/4 39/9/4
f 37/7/4 40/10/4 38/8/4
f 41/7/4 42/8/4 43/9/4
f 41/7/4 44/10/4 42/8/4
f 45/7/4 46/8/4 47/9/4
f 45/7/4 48/10/4 46/8/4
f 49/7/4 50/8/4 51/9/4
f 49/7/4 52/10/4 50/8/4
f 53/7/4 54/8/4 55/9/4
f 53/7/4 56/10/4 54/8/4
f 57/7/4 58/8/4 59/9/4
f 57/7/4 60/10/4 58/8/4
f 61/7/4 62/8/4 63/9/4
f 61/7/4 64/10/4 62/8/4
f 65/7/4 66/8/4 67/9/4
f 65/7/4 68/10/4 66/8/4
f 69/7/4 70/8/4 71/9/4
f 69/7/4 72/10/4 70/8/4
f 73/7/4 74/8/4 75/9/4
f 73/7/4 76/10/4 74/8/4
f 77/7/4 78/8/4 79/9/4
f 77/7/4 80/10/4 78/8/4
f 81/7/4 82/8/4 83/9/4
f 81/7/4 84/10/4 82/8/4
f 85/7/4 86/8/4 87/9/4
f 85/7/4 88/10/4 86/8/4
f 89/7/4 90/8/4 91/9/4
f 89/7/4 92/10/4 90/8/4
f 93/7/4 94/8/4 95/9/4
f 93/7/4 96/10/4 94/8/4
f 97/7/4 98/8/4 99/9/4
f 97/7/4 100/10/4 98/8/4
f 101/7/4 102/8/4 103/9/4
f 101/7/4 104/10/4 102/8/4
f 105/7/4 106/8/4 107/9/4
f 105/7/4 108/10/4 106/8/4
f 109/7/4 110/8/4 111/9/4
f 109/7/4 112/10/4 110/8/4
f 113/7/5 114/8/5 115/9/5
f 113/7/5 116/10/5 114/8/5
f 117/7/5 118/8/5 119/9/5
f 117/7/5 120/10/5 118/8/5
f 121/7/5 122/8/5 123/9/5
f 121/7/5 124/10/5 122/8/5
f 125/7/5 126/8/5 127/9/5
f 125/7/5 128/10/5 126/8/5
f 129/7/5 130/8/5 131/9/5
f 129/7/5 132/10/5 130/8/5
f 133/7/5 134/8/5 135/9/5
f 133/7/5 136/10/5 134/8/5
f 137/7/5 138/8/5 139/9/5
f 137/7/5 140/10/5 138/8/5
f 141/7/5 142/8/5 143/9/5
f 141/7/5 144/10/5 142/8/5
f 145/7/5 146/8/5 147/9/5
f 145/7/5 148/10/5 146/8/5
f 149/7/5 150/8/5 151/9/5
f 149/7/5 152/10/5 150/8/5
f 153/7/5 154/8/5 155/9/5
f 153/7/5 156/10/5 154/8/5
f 157/7/5 158/8/5 159/9/5
f 157/7/5 160/10/5 158/8/5
f 161/7/5 162/8/5 163/9/5
f 161/7/5 164/10/5 162/8/5
f 165/7/5 166/8/5 167/9/5
f 165/7/5 168/10/5 166/8/5
f 169/7/5 170/8/5 171/9/5
f 169/7/5 172/10/5 170/8/5
f 173/7/5 174/8/5 175/9/5
f 173/7/5 176/10/5 174/8/5
f 177/7/5 178/8/5 179/9/5
f 177/7/5 180/10/5 178/8/5
f 181/7/5 182/8/5 183/9/5
f 181/7/5 184/10/5 182/8/5
f 185/7/5 186/8/5 187/9/5
f 185/7/5 188/10/5 186/8/5
f 189/7/5 190/8/5 191/9/5
f 189/7/5 192/10/5 190/8/5
f 193/7/5 194/8/5 195/9/5
f 193/7/5 196/10/5 194/8/5
f 197/7/5 198/8/5 199/9/5
f 197/7/5 200/10/5 198/8/5
f 201/7/5 202/8/5 203/9/5
f 201/7/5 204/10/5 202/8/5
f 205/7/5 206/8/5 207/9/5
f 205/7/5 208/10/5 206/8/5
f 209/7/5 210/8/5 211/9/5
f 209/7/5 212/10/5 210/8/5
