mtllib material.mtl
o Default
v -0.0625 0 0
v -0.0625 1.0625 0
v 0 1.0625 0
v 0 0 0
v 0 0 0
v 0 1.0625 -0.5625
v 0 1.0625 0
v 0 0 -0.5625
v -42.25 0 -0.5625
v -42.25 1.0625 0
v -42.25 1.0625 -0.5625
v -42.25 0 0
v -0.0625 0 -36
v -1.75 1.0625 -36
v -0.0625 1.0625 -36
v -1.75 0 -36
v -1.75 0 -36
v -3.4375 1.0625 -36
v -1.75 1.0625 -36
v -3.4375 0 -36
v -3.4375 0 -36
v -5.125 1.0625 -36
v -3.4375 1.0625 -36
v -5.125 0 -36
v -5.125 0 -36
v -6.8125 1.0625 -36
v -5.125 1.0625 -36
v -6.8125 0 -36
v -6.8125 0 -36
v -8.5 1.0625 -36
v -6.8125 1.0625 -36
v -8.5 0 -36
v -8.5 0 -36
v -10.1875 1.0625 -36
v -8.5 1.0625 -36
v -10.1875 0 -36
v -10.1875 0 -36
v -11.875 1.0625 -36
v -10.1875 1.0625 -36
v -11.875 0 -36
v -11.875 0 -36
v -13.5625 1.0625 -36
v -11.875 1.0625 -36
v -13.5625 0 -36
v -13.5625 0 -36
v -15.25 1.0625 -36
v -13.5625 1.0625 -36
v -15.25 0 -36
v -15.25 0 -36
v -16.9375 1.0625 -36
v -15.25 1.0625 -36
v -16.9375 0 -36
v -16.9375 0 -36
v -18.625 1.0625 -36
v -16.9375 1.0625 -36
v -18.625 0 -36
v -18.625 0 -36
v -20.3125 1.0625 -36
v -18.625 1.0625 -36
v -20.3125 0 -36
v -20.3125 0 -36
v -22 1.0625 -36
v -20.3125 1.0625 -36
v -22 0 -36
v -22 0 -36
v -23.6875 1.0625 -36
v -22 1.0625 -36
v -23.6875 0 -36
v -23.6875 0 -36
v -25.375 1.0625 -36
v -23.6875 1.0625 -36
v -25.375 0 -36
v -25.375 0 -36
v -27.0625 1.0625 -36
v -25.375 1.0625 -36
v -27.0625 0 -36
v -27.0625 0 -36
v -28.75 1.0625 -36
v -27.0625 1.0625 -36
v -28.75 0 -36
v -28.75 0 -36
v -30.4375 1.0625 -36
v -28.75 1.0625 -36
v -30.4375 0 -36
v -30.4375 0 -36
v -32.125 1.0625 -36
v -30.4375 1.0625 -36
v -32.125 0 -36
v -32.125 0 -36
v -33.8125 1.0625 -36
v -32.125 1.0625 -36
v -33.8125 0 -36
v -33.8125 0 -36
v -35.5 1.0625 -36
v -33.8125 1.0625 -36
v -35.5 0 -36
v -35.5 0 -36
v -37.1875 1.0625 -36
v -35.5 1.0625 -36
v -37.1875 0 -36
v -37.1875 0 -36
v -38.875 1.0625 -36
v -37.1875 1.0625 -36
v -38.875 0 -36
v -38.875 0 -36
v -40.5625 1.0625 -36
v -38.875 1.0625 -36
v -40.5625 0 -36
v -40.5625 0 -36
v -42.25 1.0625 -36
v -40.5625 1.0625 -36
v -42.25 0 -36
v -1.75 0 0
v -0.0625 1.0625 0
v -1.75 1.0625 0
v -0.0625 0 0
v -3.4375 0 0
v -1.75 1.0625 0
v -3.4375 1.0625 0
v -1.75 0 0
v -5.125 0 0
v -3.4375 1.0625 0
v -5.125 1.0625 0
v -3.4375 0 0
v -6.8125 0 0
v -5.125 1.0625 0
v -6.8125 1.0625 0
v -5.125 0 0
v -15.25 0 0
v -13.5625 1.0625 0
v -15.25 1.0625 0
v -13.5625 0 0
v -8.5 0 0
v -6.8125 1.0625 0
v -8.5 1.0625 0
v -6.8125 0 0
v -10.1875 0 0
v -8.5 1.0625 0
v -10.1875 1.0625 0
v -8.5 0 0
v -11.875 0 0
v -10.1875 1.0625 0
v -11.875 1.0625 0
v -10.1875 0 0
v -13.5625 0 0
v -11.875 1.0625 0
v -13.5625 1.0625 0
v -11.875 0 0
v -20.3125 0 0
v -18.625 1.0625 0
v -20.3125 1.0625 0
v -18.625 0 0
v -18.625 0 0
v -16.9375 1.0625 0
v -18.625 1.0625 0
v -16.9375 0 0
v -16.9375 0 0
v -15.25 1.0625 0
v -16.9375 1.0625 0
v -15.25 0 0
v -22 0 0
v -20.3125 1.0625 0
v -22 1.0625 0
v -20.3125 0 0
v -23.6875 0 0
v -22 1.0625 0
v -23.6875 1.0625 0
v -22 0 0
v -25.375 0 0
v -23.6875 1.0625 0
v -25.375 1.0625 0
v -23.6875 0 0
v -27.0625 0 0
v -25.375 1.0625 0
v -27.0625 1.0625 0
v -25.375 0 0
v -28.75 0 0
v -27.0625 1.0625 0
v -28.75 1.0625 0
v -27.0625 0 0
v -30.4375 0 0
v -28.75 1.0625 0
v -30.4375 1.0625 0
v -28.75 0 0
v -32.125 0 0
v -30.4375 1.0625 0
v -32.125 1.0625 0
v -30.4375 0 0
v -33.8125 0 0
v -32.125 1.0625 0
v -33.8125 1.0625 0
v -32.125 0 0
v -35.5 0 0
v -33.8125 1.0625 0
v -35.5 1.0625 0
v -33.8125 0 0
v -37.1875 0 0
v -35.5 1.0625 0
v -37.1875 1.0625 0
v -35.5 0 0
v -38.875 0 0
v -37.1875 1.0625 0
v -38.875 1.0625 0
v -37.1875 0 0
v -40.5625 0 0
v -38.875 1.0625 0
v -40.5625 1.0625 0
v -38.875 0 0
v -42.25 0 0
v -40.5625 1.0625 0
v -42.25 1.0625 0
v -40.5625 0 0
v -42.25 0 -2.25
v -42.25 1.0625 -0.5625
v -42.25 1.0625 -2.25
v -42.25 0 -0.5625
v -42.25 0 -3.9375
v -42.25 1.0625 -2.25
v -42.25 1.0625 -3.9375
v -42.25 0 -2.25
v -42.25 0 -5.625
v -42.25 1.0625 -3.9375
v -42.25 1.0625 -5.625
v -42.25 0 -3.9375
v -42.25 0 -7.3125
v -42.25 1.0625 -5.625
v -42.25 1.0625 -7.3125
v -42.25 0 -5.625
v -42.25 0 -9
v -42.25 1.0625 -7.3125
v -42.25 1.0625 -9
v -42.25 0 -7.3125
v -42.25 0 -10.6875
v -42.25 1.0625 -9
v -42.25 1.0625 -10.6875
v -42.25 0 -9
v -42.25 0 -12.375
v -42.25 1.0625 -10.6875
v -42.25 1.0625 -12.375
v -42.25 0 -10.6875
v -42.25 0 -14.0625
v -42.25 1.0625 -12.375
v -42.25 1.0625 -14.0625
v -42.25 0 -12.375
v -42.25 0 -15.75
v -42.25 1.0625 -14.0625
v -42.25 1.0625 -15.75
v -42.25 0 -14.0625
v -42.25 0 -17.4375
v -42.25 1.0625 -15.75
v -42.25 1.0625 -17.4375
v -42.25 0 -15.75
v -42.25 0 -19.125
v -42.25 1.0625 -17.4375
v -42.25 1.0625 -19.125
v -42.25 0 -17.4375
v -42.25 0 -20.8125
v -42.25 1.0625 -19.125
v -42.25 1.0625 -20.8125
v -42.25 0 -19.125
v -42.25 0 -22.5
v -42.25 1.0625 -20.8125
v -42.25 1.0625 -22.5
v -42.25 0 -20.8125
v -42.25 0 -24.1875
v -42.25 1.0625 -22.5
v -42.25 1.0625 -24.1875
v -42.25 0 -22.5
v -42.25 0 -25.875
v -42.25 1.0625 -24.1875
v -42.25 1.0625 -25.875
v -42.25 0 -24.1875
v -42.25 0 -27.5625
v -42.25 1.0625 -25.875
v -42.25 1.0625 -27.5625
v -42.25 0 -25.875
v -42.25 0 -29.25
v -42.25 1.0625 -27.5625
v -42.25 1.0625 -29.25
v -42.25 0 -27.5625
v -42.25 0 -30.9375
v -42.25 1.0625 -29.25
v -42.25 1.0625 -30.9375
v -42.25 0 -29.25
v -42.25 0 -32.625
v -42.25 1.0625 -30.9375
v -42.25 1.0625 -32.625
v -42.25 0 -30.9375
v -42.25 0 -34.3125
v -42.25 1.0625 -32.625
v -42.25 1.0625 -34.3125
v -42.25 0 -32.625
v -42.25 0 -36
v -42.25 1.0625 -34.3125
v -42.25 1.0625 -36
v -42.25 0 -34.3125
v 0 0 -0.5625
v 0 1.0625 -2.25
v 0 1.0625 -0.5625
v 0 0 -2.25
v 0 0 -2.25
v 0 1.0625 -3.9375
v 0 1.0625 -2.25
v 0 0 -3.9375
v 0 0 -3.9375
v 0 1.0625 -5.625
v 0 1.0625 -3.9375
v 0 0 -5.625
v 0 0 -5.625
v 0 1.0625 -7.3125
v 0 1.0625 -5.625
v 0 0 -7.3125
v 0 0 -7.3125
v 0 1.0625 -9
v 0 1.0625 -7.3125
v 0 0 -9
v 0 0 -9
v 0 1.0625 -10.6875
v 0 1.0625 -9
v 0 0 -10.6875
v 0 0 -10.6875
v 0 1.0625 -12.375
v 0 1.0625 -10.6875
v 0 0 -12.375
v 0 0 -12.375
v 0 1.0625 -14.0625
v 0 1.0625 -12.375
v 0 0 -14.0625
v 0 0 -14.0625
v 0 1.0625 -15.75
v 0 1.0625 -14.0625
v 0 0 -15.75
v 0 0 -15.75
v 0 1.0625 -17.4375
v 0 1.0625 -15.75
v 0 0 -17.4375
v 0 0 -17.4375
v 0 1.0625 -19.125
v 0 1.0625 -17.4375
v 0 0 -19.125
v 0 0 -19.125
v 0 1.0625 -20.8125
v 0 1.0625 -19.125
v 0 0 -20.8125
v 0 0 -20.8125
v 0 1.0625 -22.5
v 0 1.0625 -20.8125
v 0 0 -22.5
v 0 0 -22.5
v 0 1.0625 -24.1875
v 0 1.0625 -22.5
v 0 0 -24.1875
v 0 0 -24.1875
v 0 1.0625 -25.875
v 0 1.0625 -24.1875
v 0 0 -25.875
v 0 0 -25.875
v 0 1.0625 -27.5625
v 0 1.0625 -25.875
v 0 0 -27.5625
v 0 0 -27.5625
v 0 1.0625 -29.25
v 0 1.0625 -27.5625
v 0 0 -29.25
v 0 0 -29.25
v 0 1.0625 -30.9375
v 0 1.0625 -29.25
v 0 0 -30.9375
v 0 0 -30.9375
v 0 1.0625 -32.625
v 0 1.0625 -30.9375
v 0 0 -32.625
v 0 0 -32.625
v 0 1.0625 -34.3125
v 0 1.0625 -32.625
v 0 0 -34.3125
v 0 0 -34.3125
v 0 1.0625 -36
v 0 1.0625 -34.3125
v 0 0 -36
v -42.25 1.0625 0
v 0 1.0625 -36
v -42.25 1.0625 -36
v 0 1.0625 0
vt 0.02958579920232296 0.9444444179534912
vt 0.031065089628100395 0.9739583134651184
vt 0.02958579920232296 0.9739583134651184
vt 0.031065089628100395 0.9444444179534912
vt 0.04289940744638443 0.9739583134651184
vt 0.04289940744638443 0.9444444179534912
vt 0.06952662765979767 0.9739583134651184
vt 0.06952662765979767 0.9444444179534912
vt 0 0
vt 1 1
vt 0 1
vt 1 0
vn 0 0 1
vn 1 0 0
vn -1 0 0
vn 0 0 -1
vn 0 1 0
g Object 658
usemtl texture_Floor
f 1/1/1 3/2/1 2/3/1
f 1/1/1 4/4/1 3/2/1
f 5/1/2 6/5/2 7/3/2
f 5/1/2 8/6/2 6/5/2
f 9/1/3 10/5/3 11/3/3
f 9/1/3 12/6/3 10/5/3
f 13/1/4 14/7/4 15/3/4
f 13/1/4 16/8/4 14/7/4
f 17/1/4 18/7/4 19/3/4
f 17/1/4 20/8/4 18/7/4
f 21/1/4 22/7/4 23/3/4
f 21/1/4 24/8/4 22/7/4
f 25/1/4 26/7/4 27/3/4
f 25/1/4 28/8/4 26/7/4
f 29/1/4 30/7/4 31/3/4
f 29/1/4 32/8/4 30/7/4
f 33/1/4 34/7/4 35/3/4
f 33/1/4 36/8/4 34/7/4
f 37/1/4 38/7/4 39/3/4
f 37/1/4 40/8/4 38/7/4
f 41/1/4 42/7/4 43/3/4
f 41/1/4 44/8/4 42/7/4
f 45/1/4 46/7/4 47/3/4
f 45/1/4 48/8/4 46/7/4
f 49/1/4 50/7/4 51/3/4
f 49/1/4 52/8/4 50/7/4
f 53/1/4 54/7/4 55/3/4
f 53/1/4 56/8/4 54/7/4
f 57/1/4 58/7/4 59/3/4
f 57/1/4 60/8/4 58/7/4
f 61/1/4 62/7/4 63/3/4
f 61/1/4 64/8/4 62/7/4
f 65/1/4 66/7/4 67/3/4
f 65/1/4 68/8/4 66/7/4
f 69/1/4 70/7/4 71/3/4
f 69/1/4 72/8/4 70/7/4
f 73/1/4 74/7/4 75/3/4
f 73/1/4 76/8/4 74/7/4
f 77/1/4 78/7/4 79/3/4
f 77/1/4 80/8/4 78/7/4
f 81/1/4 82/7/4 83/3/4
f 81/1/4 84/8/4 82/7/4
f 85/1/4 86/7/4 87/3/4
f 85/1/4 88/8/4 86/7/4
f 89/1/4 90/7/4 91/3/4
f 89/1/4 92/8/4 90/7/4
f 93/1/4 94/7/4 95/3/4
f 93/1/4 96/8/4 94/7/4
f 97/1/4 98/7/4 99/3/4
f 97/1/4 100/8/4 98/7/4
f 101/1/4 102/7/4 103/3/4
f 101/1/4 104/8/4 102/7/4
f 105/1/4 106/7/4 107/3/4
f 105/1/4 108/8/4 106/7/4
f 109/1/4 110/7/4 111/3/4
f 109/1/4 112/8/4 110/7/4
f 113/1/1 114/7/1 115/3/1
f 113/1/1 116/8/1 114/7/1
f 117/1/1 118/7/1 119/3/1
f 117/1/1 120/8/1 118/7/1
f 121/1/1 122/7/1 123/3/1
f 121/1/1 124/8/1 122/7/1
f 125/1/1 126/7/1 127/3/1
f 125/1/1 128/8/1 126/7/1
f 129/1/1 130/7/1 131/3/1
f 129/1/1 132/8/1 130/7/1
f 133/1/1 134/7/1 135/3/1
f 133/1/1 136/8/1 134/7/1
f 137/1/1 138/7/1 139/3/1
f 137/1/1 140/8/1 138/7/1
f 141/1/1 142/7/1 143/3/1
f 141/1/1 144/8/1 142/7/1
f 145/1/1 146/7/1 147/3/1
f 145/1/1 148/8/1 146/7/1
f 149/1/1 150/7/1 151/3/1
f 149/1/1 152/8/1 150/7/1
f 153/1/1 154/7/1 155/3/1
f 153/1/1 156/8/1 154/7/1
f 157/1/1 158/7/1 159/3/1
f 157/1/1 160/8/1 158/7/1
f 161/1/1 162/7/1 163/3/1
f 161/1/1 164/8/1 162/7/1
f 165/1/1 166/7/1 167/3/1
f 165/1/1 168/8/1 166/7/1
f 169/1/1 170/7/1 171/3/1
f 169/1/1 172/8/1 170/7/1
f 173/1/1 174/7/1 175/3/1
f 173/1/1 176/8/1 174/7/1
f 177/1/1 178/7/1 179/3/1
f 177/1/1 180/8/1 178/7/1
f 181/1/1 182/7/1 183/3/1
f 181/1/1 184/8/1 182/7/1
f 185/1/1 186/7/1 187/3/1
f 185/1/1 188/8/1 186/7/1
f 189/1/1 190/7/1 191/3/1
f 189/1/1 192/8/1 190/7/1
f 193/1/1 194/7/1 195/3/1
f 193/1/1 196/8/1 194/7/1
f 197/1/1 198/7/1 199/3/1
f 197/1/1 200/8/1 198/7/1
f 201/1/1 202/7/1 203/3/1
f 201/1/1 204/8/1 202/7/1
f 205/1/1 206/7/1 207/3/1
f 205/1/1 208/8/1 206/7/1
f 209/1/1 210/7/1 211/3/1
f 209/1/1 212/8/1 210/7/1
f 213/1/3 214/7/3 215/3/3
f 213/1/3 216/8/3 214/7/3
f 217/1/3 218/7/3 219/3/3
f 217/1/3 220/8/3 218/7/3
f 221/1/3 222/7/3 223/3/3
f 221/1/3 224/8/3 222/7/3
f 225/1/3 226/7/3 227/3/3
f 225/1/3 228/8/3 226/7/3
f 229/1/3 230/7/3 231/3/3
f 229/1/3 232/8/3 230/7/3
f 233/1/3 234/7/3 235/3/3
f 233/1/3 236/8/3 234/7/3
f 237/1/3 238/7/3 239/3/3
f 237/1/3 240/8/3 238/7/3
f 241/1/3 242/7/3 243/3/3
f 241/1/3 244/8/3 242/7/3
f 245/1/3 246/7/3 247/3/3
f 245/1/3 248/8/3 246/7/3
f 249/1/3 250/7/3 251/3/3
f 249/1/3 252/8/3 250/7/3
f 253/1/3 254/7/3 255/3/3
f 253/1/3 256/8/3 254/7/3
f 257/1/3 258/7/3 259/3/3
f 257/1/3 260/8/3 258/7/3
f 261/1/3 262/7/3 263/3/3
f 261/1/3 264/8/3 262/7/3
f 265/1/3 266/7/3 267/3/3
f 265/1/3 268/8/3 266/7/3
f 269/1/3 270/7/3 271/3/3
f 269/1/3 272/8/3 270/7/3
f 273/1/3 274/7/3 275/3/3
f 273/1/3 276/8/3 274/7/3
f 277/1/3 278/7/3 279/3/3
f 277/1/3 280/8/3 278/7/3
f 281/1/3 282/7/3 283/3/3
f 281/1/3 284/8/3 282/7/3
f 285/1/3 286/7/3 287/3/3
f 285/1/3 288/8/3 286/7/3
f 289/1/3 290/7/3 291/3/3
f 289/1/3 292/8/3 290/7/3
f 293/1/3 294/7/3 295/3/3
f 293/1/3 296/8/3 294/7/3
f 297/1/2 298/7/2 299/3/2
f 297/1/2 300/8/2 298/7/2
f 301/1/2 302/7/2 303/3/2
f 301/1/2 304/8/2 302/7/2
f 305/1/2 306/7/2 307/3/2
f 305/1/2 308/8/2 306/7/2
f 309/1/2 310/7/2 311/3/2
f 309/1/2 312/8/2 310/7/2
f 313/1/2 314/7/2 315/3/2
f 313/1/2 316/8/2 314/7/2
f 317/1/2 318/7/2 319/3/2
f 317/1/2 320/8/2 318/7/2
f 321/1/2 322/7/2 323/3/2
f 321/1/2 324/8/2 322/7/2
f 325/1/2 326/7/2 327/3/2
f 325/1/2 328/8/2 326/7/2
f 329/1/2 330/7/2 331/3/2
f 329/1/2 332/8/2 330/7/2
f 333/1/2 334/7/2 335/3/2
f 333/1/2 336/8/2 334/7/2
f 337/1/2 338/7/2 339/3/2
f 337/1/2 340/8/2 338/7/2
f 341/1/2 342/7/2 343/3/2
f 341/1/2 344/8/2 342/7/2
f 345/1/2 346/7/2 347/3/2
f 345/1/2 348/8/2 346/7/2
f 349/1/2 350/7/2 351/3/2
f 349/1/2 352/8/2 350/7/2
f 353/1/2 354/7/2 355/3/2
f 353/1/2 356/8/2 354/7/2
f 357/1/2 358/7/2 359/3/2
f 357/1/2 360/8/2 358/7/2
f 361/1/2 362/7/2 363/3/2
f 361/1/2 364/8/2 362/7/2
f 365/1/2 366/7/2 367/3/2
f 365/1/2 368/8/2 366/7/2
f 369/1/2 370/7/2 371/3/2
f 369/1/2 372/8/2 370/7/2
f 373/1/2 374/7/2 375/3/2
f 373/1/2 376/8/2 374/7/2
f 377/1/2 378/7/2 379/3/2
f 377/1/2 380/8/2 378/7/2
f 381/9/5 382/10/5 383/11/5
f 381/9/5 384/12/5 382/10/5
