mtllib material.mtl
o Default
v 17.875 -24 0
v 17.875 -23 0
v 17.875 -23 -0.6875
v 17.875 -24 -0.6875
v 17.875 -23 0
v 17.875 -22 -0.6875
v 17.875 -22 0
v 17.875 -23 -0.6875
v 17.875 -22 0
v 17.875 -21 -0.6875
v 17.875 -21 0
v 17.875 -22 -0.6875
v 17.875 -21 0
v 17.875 -20 -0.6875
v 17.875 -20 0
v 17.875 -21 -0.6875
v 17.875 -20 0
v 17.875 -19 -0.6875
v 17.875 -19 0
v 17.875 -20 -0.6875
v 17.875 -19 0
v 17.875 -18 -0.6875
v 17.875 -18 0
v 17.875 -19 -0.6875
v 17.875 -18 0
v 17.875 -17 -0.6875
v 17.875 -17 0
v 17.875 -18 -0.6875
v 17.875 -17 0
v 17.875 -16 -0.6875
v 17.875 -16 0
v 17.875 -17 -0.6875
v 17.875 -16 0
v 17.875 -15 -0.6875
v 17.875 -15 0
v 17.875 -16 -0.6875
v 17.875 -15 0
v 17.875 -14 -0.6875
v 17.875 -14 0
v 17.875 -15 -0.6875
v 17.875 -14 0
v 17.875 -13 -0.6875
v 17.875 -13 0
v 17.875 -14 -0.6875
v 17.875 -13 0
v 17.875 -12 -0.6875
v 17.875 -12 0
v 17.875 -13 -0.6875
v 17.875 -12 0
v 17.875 -11 -0.6875
v 17.875 -11 0
v 17.875 -12 -0.6875
v 17.875 -11 0
v 17.875 -10 -0.6875
v 17.875 -10 0
v 17.875 -11 -0.6875
v 17.875 -10 0
v 17.875 -9 -0.6875
v 17.875 -9 0
v 17.875 -10 -0.6875
v 17.875 -9 0
v 17.875 -8 -0.6875
v 17.875 -8 0
v 17.875 -9 -0.6875
v 17.875 -8 0
v 17.875 -7 -0.6875
v 17.875 -7 0
v 17.875 -8 -0.6875
v 17.875 -7 0
v 17.875 -6 -0.6875
v 17.875 -6 0
v 17.875 -7 -0.6875
v 17.875 -6 0
v 17.875 -5 -0.6875
v 17.875 -5 0
v 17.875 -6 -0.6875
v 17.875 -5 0
v 17.875 -4 -0.6875
v 17.875 -4 0
v 17.875 -5 -0.6875
v 17.875 -4 0
v 17.875 -3 -0.6875
v 17.875 -3 0
v 17.875 -4 -0.6875
v 17.875 -3 0
v 17.875 -2 -0.6875
v 17.875 -2 0
v 17.875 -3 -0.6875
v 17.875 -2 0
v 17.875 -1 -0.6875
v 17.875 -1 0
v 17.875 -2 -0.6875
v 17.875 -1 0
v 17.875 0 -0.6875
v 17.875 0 0
v 17.875 -1 -0.6875
v 9.125 0 0
v 17.875 0 -0.6875
v 9.125 0 -0.6875
v 17.875 0 0
v 9.125 -25 0
v 17.875 0 0
v 9.125 0 0
v 17.875 -25 0
v 17.875 -25 0
v 17.875 -24 -0.6875
v 17.875 -24 0
v 17.875 -25 -0.6875
vt 0.4000000059604645 0.9599999785423279
vt 0.47857141494750977 1
vt 0.4000000059604645 1
vt 0.47857141494750977 0.9599999785423279
vt 0 0.9725000262260437
vt 1 1
vt 0 1
vt 1 0.9725000262260437
vt 0 0
vt 1 0
vn 1 0 0
vn 0 1 0
vn 0 0 1
g Object 66144
usemtl Wall2
f 1/1/1 3/2/1 2/3/1
f 1/1/1 4/4/1 3/2/1
f 5/1/1 6/2/1 7/3/1
f 5/1/1 8/4/1 6/2/1
f 9/1/1 10/2/1 11/3/1
f 9/1/1 12/4/1 10/2/1
f 13/1/1 14/2/1 15/3/1
f 13/1/1 16/4/1 14/2/1
f 17/1/1 18/2/1 19/3/1
f 17/1/1 20/4/1 18/2/1
f 21/1/1 22/2/1 23/3/1
f 21/1/1 24/4/1 22/2/1
f 25/1/1 26/2/1 27/3/1
f 25/1/1 28/4/1 26/2/1
f 29/1/1 30/2/1 31/3/1
f 29/1/1 32/4/1 30/2/1
f 33/1/1 34/2/1 35/3/1
f 33/1/1 36/4/1 34/2/1
f 37/1/1 38/2/1 39/3/1
f 37/1/1 40/4/1 38/2/1
f 41/1/1 42/2/1 43/3/1
f 41/1/1 44/4/1 42/2/1
f 45/1/1 46/2/1 47/3/1
f 45/1/1 48/4/1 46/2/1
f 49/1/1 50/2/1 51/3/1
f 49/1/1 52/4/1 50/2/1
f 53/1/1 54/2/1 55/3/1
f 53/1/1 56/4/1 54/2/1
f 57/1/1 58/2/1 59/3/1
f 57/1/1 60/4/1 58/2/1
f 61/1/1 62/2/1 63/3/1
f 61/1/1 64/4/1 62/2/1
f 65/1/1 66/2/1 67/3/1
f 65/1/1 68/4/1 66/2/1
f 69/1/1 70/2/1 71/3/1
f 69/1/1 72/4/1 70/2/1
f 73/1/1 74/2/1 75/3/1
f 73/1/1 76/4/1 74/2/1
f 77/1/1 78/2/1 79/3/1
f 77/1/1 80/4/1 78/2/1
f 81/1/1 82/2/1 83/3/1
f 81/1/1 84/4/1 82/2/1
f 85/1/1 86/2/1 87/3/1
f 85/1/1 88/4/1 86/2/1
f 89/1/1 90/2/1 91/3/1
f 89/1/1 92/4/1 90/2/1
f 93/1/1 94/2/1 95/3/1
f 93/1/1 96/4/1 94/2/1
f 97/5/2 98/6/2 99/7/2
f 97/5/2 100/8/2 98/6/2
f 101/9/3 102/6/3 103/7/3
f 101/9/3 104/10/3 102/6/3
f 105/1/1 106/2/1 107/3/1
f 105/1/1 108/4/1 106/2/1
