mtllib material.mtl
o Default
v 0 0 0
v 0 9.625 0
v 0 9.625 2.25
v 0 0 2.25
v 8 0 2.25
v 8 9.625 0
v 8 9.625 2.25
v 8 0 0
v 0.6875 2.28125 0.4375
v 7.3125 2.28125 2.25
v 0.6875 2.28125 2.25
v 7.3125 2.28125 0.4375
v 0.6875 4.46875 0.4375
v 7.3125 4.46875 2.25
v 0.6875 4.46875 2.25
v 7.3125 4.46875 0.4375
v 0.6875 6.65625 0.4375
v 7.3125 6.65625 2.25
v 0.6875 6.65625 2.25
v 7.3125 6.65625 0.4375
v 0.6875 7.09375 2.25
v 7.3125 7.09375 0.4375
v 0.6875 7.09375 0.4375
v 7.3125 7.09375 2.25
v 0.6875 4.90625 2.25
v 7.3125 4.90625 0.4375
v 0.6875 4.90625 0.4375
v 7.3125 4.90625 2.25
v 0.6875 2.71875 2.25
v 7.3125 2.71875 0.4375
v 0.6875 2.71875 0.4375
v 7.3125 2.71875 2.25
v 0.6875 6.65625 2.25
v 7.3125 7.09375 2.25
v 0.6875 7.09375 2.25
v 7.3125 6.65625 2.25
v 0.6875 4.46875 2.25
v 7.3125 4.90625 2.25
v 0.6875 4.90625 2.25
v 7.3125 4.46875 2.25
v 0.6875 2.28125 2.25
v 7.3125 2.71875 2.25
v 0.6875 2.71875 2.25
v 7.3125 2.28125 2.25
v 0 2.71875 2.25
v 0.6875 4.875 2.25
v 0 4.875 2.25
v 0.6875 2.71875 2.25
v 0 4.875 2.25
v 0.6875 7.03125 2.25
v 0 7.03125 2.25
v 0.6875 4.875 2.25
v 0 7.03125 2.25
v 0.6875 9.1875 2.25
v 0 9.1875 2.25
v 0.6875 7.03125 2.25
v 7.3125 2.65625 2.25
v 8 4.8125 2.25
v 7.3125 4.8125 2.25
v 8 2.65625 2.25
v 7.3125 4.8125 2.25
v 8 6.96875 2.25
v 7.3125 6.96875 2.25
v 8 4.8125 2.25
v 7.3125 6.96875 2.25
v 8 9.125 2.25
v 7.3125 9.125 2.25
v 8 6.96875 2.25
v 0.6875 0.5 0.4375
v 7.3125 9.125 0.4375
v 0.6875 9.125 0.4375
v 7.3125 0.5 0.4375
v 7.3125 0.4375 0.4375
v 7.3125 9.125 2.25
v 7.3125 9.125 0.4375
v 7.3125 0.4375 2.25
v 0.6875 0.4375 2.25
v 0.6875 9.125 0.4375
v 0.6875 9.125 2.25
v 0.6875 0.4375 0.4375
v 0.6875 0.5 2.25
v 7.3125 0.5 0.4375
v 0.6875 0.5 0.4375
v 7.3125 0.5 2.25
v 0.6875 9.125 0.4375
v 7.3125 9.125 2.25
v 0.6875 9.125 2.25
v 7.3125 9.125 0.4375
v 0 0 2.25
v 8 0.5625 2.25
v 0 0.5625 2.25
v 8 0 2.25
v 7.3125 0.5 2.25
v 8 2.65625 2.25
v 7.3125 2.65625 2.25
v 8 0.5 2.25
v 0 0.5625 2.25
v 0.6875 2.71875 2.25
v 0 2.71875 2.25
v 0.6875 0.5625 2.25
v 0 9.125 2.25
v 8 9.6875 2.25
v 0 9.6875 2.25
v 8 9.125 2.25
v 0 9.6875 2.25
v 8 9.6875 0
v 0 9.6875 0
v 8 9.6875 2.25
v 8 -0.0625 2.25
v 8 9.75 0
v 8 9.75 2.25
v 8 -0.0625 0
v 0 0 0
v 0 9.8125 2.25
v 0 9.8125 0
v 0 0 2.25
v 8 -0.0625 0
v 0 9.6875 0
v 8 9.6875 0
v 0 -0.0625 0
vt 0.8850574493408203 0.012698412872850895
vt 0.9885057210922241 0.5015873312950134
vt 0.8850574493408203 0.5015873312950134
vt 0.9885057210922241 0.012698412872850895
vt 0.6954023241996765 0.9047619104385376
vt 1 0.9968253970146179
vt 0.6954023241996765 0.9968253970146179
vt 1 0.9047619104385376
vt 0.6954023241996765 0.761904776096344
vt 1 0.8539682626724243
vt 0.6954023241996765 0.8539682626724243
vt 1 0.761904776096344
vt 0.6954023241996765 0.8571428656578064
vt 1 0.879365086555481
vt 0.6954023241996765 0.879365086555481
vt 1 0.8571428656578064
vt 0.3218390941619873 0.6365079879760742
vt 0.3534482717514038 0.7460317611694336
vt 0.3218390941619873 0.7460317611694336
vt 0.3534482717514038 0.6365079879760742
vt 0.3534482717514038 0.855555534362793
vt 0.3218390941619873 0.855555534362793
vt 0.3534482717514038 0.9650793671607971
vt 0.3218390941619873 0.9650793671607971
vt 0.0028735632076859474 0.5269841551780701
vt 0.30747127532958984 0.9650793671607971
vt 0.0028735632076859474 0.9650793671607971
vt 0.30747127532958984 0.5269841551780701
vt 0.7816091775894165 0.06666667014360428
vt 0.8649425506591797 0.5079365372657776
vt 0.7816091775894165 0.5079365372657776
vt 0.8649425506591797 0.06666667014360428
vt 0.3218390941619873 0.49841269850730896
vt 0.6896551847457886 0.5269841551780701
vt 0.3218390941619873 0.5269841551780701
vt 0.6896551847457886 0.49841269850730896
vt 0.3534482717514038 0.5269841551780701
vt 0.3218390941619873 0.9682539701461792
vt 0.6896551847457886 0.9968253970146179
vt 0.3218390941619873 0.9968253970146179
vt 0.6896551847457886 0.9682539701461792
vt 0.38793104887008667 0.3682539761066437
vt 0.7557471394538879 0.48253968358039856
vt 0.38793104887008667 0.48253968358039856
vt 0.7557471394538879 0.3682539761066437
vt 0.8850574493408203 0.009523809887468815
vt 0.9885057210922241 0.5079365372657776
vt 0.8850574493408203 0.5079365372657776
vt 0.9885057210922241 0.009523809887468815
vt 0.0028735632076859474 0
vt 0.37068966031074524 0.4952380955219269
vt 0.0028735632076859474 0.4952380955219269
vt 0.37068966031074524 0
vn -1 0 0
vn 1 0 0
vn 0 -1 0
vn 0 1 0
vn 0 0 1
vn 0 0 -1
g Object 2057
usemtl Bookcase
f 1/1/1 3/2/1 2/3/1
f 1/1/1 4/4/1 3/2/1
f 5/1/2 6/2/2 7/3/2
f 5/1/2 8/4/2 6/2/2
f 9/5/3 10/6/3 11/7/3
f 9/5/3 12/8/3 10/6/3
f 13/5/3 14/6/3 15/7/3
f 13/5/3 16/8/3 14/6/3
f 17/5/3 18/6/3 19/7/3
f 17/5/3 20/8/3 18/6/3
f 21/9/4 22/10/4 23/11/4
f 21/9/4 24/12/4 22/10/4
f 25/9/4 26/10/4 27/11/4
f 25/9/4 28/12/4 26/10/4
f 29/9/4 30/10/4 31/11/4
f 29/9/4 32/12/4 30/10/4
f 33/13/5 34/14/5 35/15/5
f 33/13/5 36/16/5 34/14/5
f 37/13/5 38/14/5 39/15/5
f 37/13/5 40/16/5 38/14/5
f 41/13/5 42/14/5 43/15/5
f 41/13/5 44/16/5 42/14/5
f 45/17/5 46/18/5 47/19/5
f 45/17/5 48/20/5 46/18/5
f 49/19/5 50/21/5 51/22/5
f 49/19/5 52/18/5 50/21/5
f 53/22/5 54/23/5 55/24/5
f 53/22/5 56/21/5 54/23/5
f 57/17/5 58/18/5 59/19/5
f 57/17/5 60/20/5 58/18/5
f 61/19/5 62/21/5 63/22/5
f 61/19/5 64/18/5 62/21/5
f 65/22/5 66/23/5 67/24/5
f 65/22/5 68/21/5 66/23/5
f 69/25/5 70/26/5 71/27/5
f 69/25/5 72/28/5 70/26/5
f 73/29/1 74/30/1 75/31/1
f 73/29/1 76/32/1 74/30/1
f 77/29/2 78/30/2 79/31/2
f 77/29/2 80/32/2 78/30/2
f 81/5/4 82/6/4 83/7/4
f 81/5/4 84/8/4 82/6/4
f 85/5/3 86/6/3 87/7/3
f 85/5/3 88/8/3 86/6/3
f 89/33/5 90/34/5 91/35/5
f 89/33/5 92/36/5 90/34/5
f 93/35/5 94/20/5 95/17/5
f 93/35/5 96/37/5 94/20/5
f 97/35/5 98/20/5 99/17/5
f 97/35/5 100/37/5 98/20/5
f 101/38/5 102/39/5 103/40/5
f 101/38/5 104/41/5 102/39/5
f 105/42/4 106/43/4 107/44/4
f 105/42/4 108/45/4 106/43/4
f 109/46/2 110/47/2 111/48/2
f 109/46/2 112/49/2 110/47/2
f 113/46/1 114/47/1 115/48/1
f 113/46/1 116/49/1 114/47/1
f 117/50/6 118/51/6 119/52/6
f 117/50/6 120/53/6 118/51/6
