mtllib material.mtl
o Default
v 5.5 -3.4375 -3
v 5.5 -0.4375 -3
v 5.5 -0.4375 -2.5
v 5.5 -3.4375 -2.5
v 5.5 -3.4375 -0.5
v 5.5 -0.4375 0
v 5.5 -0.4375 -0.5
v 5.5 -3.4375 0
v 0.5 -3.4375 0
v 0.5 -0.4375 -0.5
v 0.5 -0.4375 0
v 0.5 -3.4375 -0.5
v 6 -3.4375 -2.5
v 6 -0.4375 -3
v 6 -0.4375 -2.5
v 6 -3.4375 -3
v 0.5 -3.4375 -0.5
v 0 -0.4375 -0.5
v 0.5 -0.4375 -0.5
v 0 -3.4375 -0.5
v 6 -3.4375 -3
v 5.5 -0.4375 -3
v 6 -0.4375 -3
v 5.5 -3.4375 -3
v 0 -3.4375 -2.5
v 0.5 -0.4375 -2.5
v 0 -0.4375 -2.5
v 0.5 -3.4375 -2.5
v 0.5 -3.4375 -2.5
v 0.5 -0.4375 -3
v 0.5 -0.4375 -2.5
v 0.5 -3.4375 -3
v 0.5 -3.4375 -3
v 0 -0.4375 -3
v 0.5 -0.4375 -3
v 0 -3.4375 -3
v 0 -3.4375 0
v 0.5 -0.4375 0
v 0 -0.4375 0
v 0.5 -3.4375 0
v 5.5 -3.4375 -2.5
v 6 -0.4375 -2.5
v 5.5 -0.4375 -2.5
v 6 -3.4375 -2.5
v 5.5 -3.4375 0
v 6 -0.4375 0
v 5.5 -0.4375 0
v 6 -3.4375 0
v 6 -3.4375 -0.5
v 5.5 -0.4375 -0.5
v 6 -0.4375 -0.5
v 5.5 -3.4375 -0.5
v 6 -3.4375 0
v 6 -0.4375 -0.5
v 6 -0.4375 0
v 6 -3.4375 -0.5
v 0 -3.4375 -3
v 0 -0.4375 -2.5
v 0 -0.4375 -3
v 0 -3.4375 -2.5
v 0 -3.4375 -0.5
v 0 -0.4375 0
v 0 -0.4375 -0.5
v 0 -3.4375 0
v 0 -0.4375 -3
v 6 -0.4375 0
v 0 -0.4375 0
v 6 -0.4375 -3
v 0 -0.4375 -3
v 0 0 0
v 0 0 -3
v 0 -0.4375 0
v 6 -0.4375 0
v 6 0 -3
v 6 0 0
v 6 -0.4375 -3
v 6 -0.4375 -3
v 0 0 -3
v 6 0 -3
v 0 -0.4375 -3
v 0 -0.4375 0
v 6 0 0
v 0 0 0
v 6 -0.4375 0
v 0 0 0
v 6 0 -3
v 0 0 -3
v 6 0 0
vt 0.9444444179534912 0.06796116381883621
vt 1 0.5339806079864502
vt 0.9444444179534912 0.5339806079864502
vt 1 0.06796116381883621
vt 0.8333333134651184 0.06796116381883621
vt 0.8888888955116272 0.5339806079864502
vt 0.8333333134651184 0.5339806079864502
vt 0.8888888955116272 0.06796116381883621
vt 0.7777777910232544 0.06796116381883621
vt 0.7777777910232544 0.5339806079864502
vt 0 0
vt 0.6666666865348816 0.4660194218158722
vt 0 0.4660194218158722
vt 0.6666666865348816 0
vt 0.6666666865348816 0.9320388436317444
vt 1 1
vt 0.6666666865348816 1
vt 1 0.9320388436317444
vt 0.6666666865348816 0.5339806079864502
vt 0 0.5339806079864502
vt 0 1
vn -1 0 0
vn 1 0 0
vn 0 0 -1
vn 0 0 1
vn 0 -1 0
vn 0 1 0
g Object 449
usemtl Table
f 1/1/1 3/2/1 2/3/1
f 1/1/1 4/4/1 3/2/1
f 5/1/1 6/2/1 7/3/1
f 5/1/1 8/4/1 6/2/1
f 9/1/2 10/2/2 11/3/2
f 9/1/2 12/4/2 10/2/2
f 13/5/2 14/6/2 15/7/2
f 13/5/2 16/8/2 14/6/2
f 17/8/3 18/3/3 19/6/3
f 17/8/3 20/1/3 18/3/3
f 21/8/3 22/3/3 23/6/3
f 21/8/3 24/1/3 22/3/3
f 25/8/4 26/3/4 27/6/4
f 25/8/4 28/1/4 26/3/4
f 29/1/2 30/2/2 31/3/2
f 29/1/2 32/4/2 30/2/2
f 33/9/3 34/7/3 35/10/3
f 33/9/3 36/5/3 34/7/3
f 37/9/4 38/7/4 39/10/4
f 37/9/4 40/5/4 38/7/4
f 41/9/4 42/7/4 43/10/4
f 41/9/4 44/5/4 42/7/4
f 45/9/4 46/7/4 47/10/4
f 45/9/4 48/5/4 46/7/4
f 49/8/3 50/3/3 51/6/3
f 49/8/3 52/1/3 50/3/3
f 53/5/2 54/6/2 55/7/2
f 53/5/2 56/8/2 54/6/2
f 57/5/1 58/6/1 59/7/1
f 57/5/1 60/8/1 58/6/1
f 61/5/1 62/6/1 63/7/1
f 61/5/1 64/8/1 62/6/1
f 65/11/5 66/12/5 67/13/5
f 65/11/5 68/14/5 66/12/5
f 69/15/1 70/16/1 71/17/1
f 69/15/1 72/18/1 70/16/1
f 73/15/2 74/16/2 75/17/2
f 73/15/2 76/18/2 74/16/2
f 77/13/3 78/19/3 79/20/3
f 77/13/3 80/12/3 78/19/3
f 81/13/4 82/19/4 83/20/4
f 81/13/4 84/12/4 82/19/4
f 85/20/6 86/17/6 87/21/6
f 85/20/6 88/19/6 86/17/6
